<svg width="720" height="452" viewBox="0 0 720 452" fill="none" xmlns="http://www.w3.org/2000/svg">
<path d="M281.55 274.521C281.55 275.961 281.072 276.957 280.275 277.455L277.672 279.005C277.778 278.95 277.884 278.839 277.937 278.728C277.566 279.005 277.088 279.226 276.609 279.226C276.397 279.614 276.184 279.946 275.865 280.112L273.262 281.662C273.368 281.607 273.474 281.496 273.528 281.385C272.731 282.105 271.509 282.215 270.127 281.385C267.684 279.891 265.718 276.348 265.718 273.47C265.718 271.975 266.196 270.979 266.993 270.481L269.596 268.931C269.915 268.709 270.34 268.709 270.712 268.654C270.924 268.322 271.137 267.99 271.456 267.824L274.059 266.218C274.856 265.776 275.972 265.831 277.194 266.551C279.584 268.045 281.603 271.588 281.55 274.521V274.521Z" fill="#1D2943"/>
<path d="M281.57 274.498C281.562 275.941 281.072 276.961 280.284 277.44L277.669 279.018C278.457 278.539 278.947 277.527 278.955 276.076C278.962 273.158 276.988 269.61 274.562 268.143C273.337 267.409 272.228 267.337 271.424 267.824L274.039 266.246C274.843 265.759 275.953 265.823 277.177 266.565C279.603 268.024 281.577 271.58 281.57 274.498V274.498Z" fill="#1D2943"/>
<path d="M274.56 268.147C276.989 269.608 278.961 273.161 278.953 276.08C278.945 278.993 276.96 280.165 274.532 278.705C272.098 277.241 270.131 273.691 270.139 270.778C270.147 267.859 272.127 266.683 274.56 268.147Z" fill="#4C5C75"/>
<path d="M278.534 275.865C278.527 277.216 278.069 278.172 277.33 278.62L274.945 280.06C275.683 279.612 276.141 278.663 276.149 277.305C276.156 274.572 274.307 271.249 272.035 269.875C270.888 269.189 269.849 269.121 269.097 269.577L271.482 268.137C272.235 267.682 273.274 267.741 274.421 268.436C276.693 269.802 278.542 273.132 278.534 275.865V275.865Z" fill="#E3E7F0"/>
<path d="M277.151 277.165C277.143 278.608 276.653 279.628 275.865 280.107L273.25 281.685C274.038 281.206 274.528 280.194 274.536 278.743C274.543 275.825 272.569 272.277 270.143 270.81C268.919 270.076 267.809 270.004 267.005 270.491L269.62 268.913C270.424 268.426 271.534 268.49 272.758 269.232C275.184 270.691 277.158 274.247 277.151 277.165V277.165Z" fill="#1D2943"/>
<path d="M270.141 270.813C272.57 272.274 274.542 275.827 274.534 278.746C274.526 281.659 272.541 282.832 270.113 281.371C267.679 279.907 265.712 276.357 265.72 273.444C265.728 270.525 267.708 269.349 270.141 270.813Z" fill="#4C5C75"/>
<path d="M270.138 271.949C272.045 273.096 273.59 275.885 273.584 278.174C273.578 280.456 272.022 281.38 270.115 280.233C268.209 279.086 266.663 276.297 266.669 274.015C266.676 271.726 268.231 270.802 270.138 271.949V271.949Z" fill="#F3F1FC"/>
<path d="M269.902 278.244C270.125 278.379 270.3 278.694 270.299 278.961C270.298 279.229 270.122 279.333 269.899 279.199C269.684 279.069 269.509 278.754 269.51 278.487C269.51 278.219 269.686 278.115 269.902 278.244Z" fill="#4C5C75"/>
<path d="M271.468 274.686C271.57 274.748 271.671 274.856 271.747 274.994C271.907 275.281 271.906 275.577 271.746 275.663C271.67 275.713 271.57 275.7 271.469 275.64C271.368 275.579 271.267 275.47 271.187 275.327C271.036 275.054 271.029 274.754 271.189 274.658C271.268 274.612 271.368 274.627 271.468 274.686V274.686Z" fill="#4C5C75"/>
<path d="M268.348 276.539C268.45 276.6 268.551 276.709 268.627 276.847C268.786 277.134 268.786 277.43 268.626 277.525C268.55 277.57 268.45 277.555 268.349 277.495C268.248 277.434 268.147 277.328 268.067 277.189C267.916 276.907 267.909 276.606 268.069 276.511C268.148 276.464 268.248 276.479 268.348 276.539V276.539Z" fill="#4C5C75"/>
<path d="M267.716 274.3C267.939 274.434 268.106 274.745 268.105 275.002C268.105 275.27 267.936 275.379 267.713 275.245C267.482 275.106 267.315 274.795 267.316 274.528C267.316 274.27 267.485 274.16 267.716 274.3V274.3Z" fill="#4C5C75"/>
<path d="M268.363 272.818C268.463 272.879 268.563 272.984 268.638 273.123C268.797 273.41 268.796 273.706 268.636 273.792C268.56 273.842 268.46 273.829 268.36 273.769C268.259 273.708 268.157 273.599 268.078 273.456C267.919 273.179 267.92 272.883 268.079 272.788C268.157 272.742 268.26 272.756 268.363 272.818V272.818Z" fill="#4C5C75"/>
<path d="M271.463 278.412C271.563 278.472 271.663 278.578 271.738 278.717C271.897 279.004 271.896 279.3 271.736 279.395C271.66 279.44 271.56 279.425 271.46 279.365C271.359 279.304 271.257 279.198 271.178 279.059C271.019 278.772 271.02 278.476 271.18 278.381C271.257 278.336 271.36 278.35 271.463 278.412V278.412Z" fill="#4C5C75"/>
<path d="M269.911 274.741C270.565 275.134 271.089 276.081 271.087 276.864C271.085 277.637 270.557 277.95 269.903 277.557C269.257 277.169 268.733 276.222 268.735 275.449C268.737 274.666 269.265 274.352 269.911 274.741Z" fill="#4C5C75"/>
<path d="M269.916 272.984C270.139 273.118 270.314 273.434 270.313 273.701C270.313 273.969 270.137 274.063 269.913 273.929C269.698 273.8 269.523 273.494 269.524 273.226C269.525 272.959 269.701 272.855 269.916 272.984Z" fill="#4C5C75"/>
<path d="M272.109 276.943C272.333 277.077 272.508 277.393 272.507 277.651C272.506 277.918 272.33 278.022 272.107 277.888C271.884 277.754 271.709 277.438 271.709 277.171C271.71 276.913 271.886 276.809 272.109 276.943Z" fill="#4C5C75"/>
<path d="M274.448 254.452L274.409 268.809C274.409 268.938 274.328 269.067 274.166 269.165C273.835 269.366 273.301 269.364 272.971 269.165C272.804 269.065 272.72 268.933 272.72 268.802L272.759 254.445C272.759 254.577 272.843 254.708 273.01 254.809C273.341 255.008 273.874 255.009 274.205 254.809C274.367 254.711 274.448 254.582 274.448 254.452V254.452Z" fill="#B0B8CF"/>
<path d="M131.945 110.484L128.193 108.041C128.193 108.041 104.005 126.959 103.469 127.447L121.895 134.428L123.168 134.777L132.28 111.81L131.945 110.484Z" fill="#497BFE"/>
<path d="M103.469 127.448C104.005 126.959 128.193 108.041 128.193 108.041L131.945 110.484L121.895 134.428L103.469 127.448Z" fill="#2E378B"/>
<path d="M131.946 110.484L132.281 111.811L123.168 134.777L121.895 134.428L131.946 110.484Z" fill="#A3A9E1"/>
<path d="M275.33 177.185C274.34 176.582 272.963 176.669 271.452 177.58C268.437 179.389 266.013 183.783 266.026 187.387C266.026 189.183 266.636 190.442 267.614 191.038L245.216 177.63C244.232 177.034 243.628 175.774 243.621 173.979C243.615 170.375 246.039 165.98 249.054 164.171C250.566 163.26 251.935 163.173 252.932 163.776L275.33 177.185Z" fill="#F3F1FC"/>
<path d="M289.732 186.402C289.732 191.162 286.491 197.029 282.507 199.465C280.434 200.738 278.522 200.738 277.194 199.852C277.034 199.742 276.822 199.575 276.662 199.409C276.768 199.52 276.875 199.631 276.981 199.742L262.849 191.217C261.52 190.387 260.724 188.726 260.724 186.346C260.724 181.531 263.911 175.663 267.949 173.283C269.968 172.065 271.775 171.955 273.103 172.73L287.607 181.531C288.935 182.306 289.732 183.966 289.732 186.402V186.402Z" fill="#111D33"/>
<path d="M287.611 181.522C286.292 180.718 284.458 180.834 282.444 182.048C278.425 184.459 275.194 190.316 275.211 195.12C275.211 197.513 276.025 199.191 277.328 199.986L262.836 191.209C261.525 190.414 260.719 188.736 260.71 186.343C260.702 181.54 263.933 175.682 267.952 173.272C269.966 172.058 271.791 171.941 273.12 172.745L287.611 181.522Z" fill="#4C5C75"/>
<path d="M282.445 182.045C286.455 179.632 289.722 181.578 289.735 186.379C289.748 191.187 286.503 197.043 282.492 199.456C278.476 201.871 275.221 199.926 275.208 195.118C275.194 190.316 278.429 184.46 282.445 182.045V182.045Z" fill="#1D2943"/>
<path d="M288.859 186.346C288.907 190.922 285.867 196.402 282.102 198.665C281.041 199.319 280.076 199.62 279.255 199.62C278.483 199.62 277.807 199.369 277.325 198.816C277.276 198.816 277.276 198.816 277.228 198.715C277.228 198.715 277.228 198.715 277.18 198.715C276.938 198.464 276.746 198.162 276.601 197.76C276.263 197.056 276.07 196.151 276.07 195.095C276.07 190.62 279.062 185.089 282.875 182.777C283.792 182.274 284.708 181.972 285.481 181.922H285.674C285.818 181.922 285.963 181.922 286.108 181.972C286.205 181.922 286.301 181.972 286.398 181.972C287.942 182.374 288.859 183.933 288.859 186.346V186.346Z" fill="#4C5C75"/>
<path d="M285.963 184.486C286.012 189.062 282.923 194.542 279.159 196.805C278.242 197.408 277.373 197.71 276.601 197.76C276.263 197.056 276.07 196.151 276.07 195.095C276.07 190.62 279.062 185.089 282.875 182.777C283.792 182.274 284.708 181.972 285.481 181.922C285.818 182.626 285.963 183.481 285.963 184.486V184.486Z" fill="#111D33"/>
<path d="M282.892 187.429C282.589 187.204 282.114 187.249 281.596 187.565C280.559 188.15 279.739 189.634 279.739 190.85C279.739 191.435 279.955 191.884 280.3 192.065L279.107 191.391C278.805 191.166 278.589 190.761 278.589 190.131C278.589 188.961 279.41 187.476 280.446 186.845C280.964 186.53 281.396 186.53 281.742 186.711L282.892 187.429Z" fill="#C9CEE2"/>
<path d="M281.591 187.546C282.612 186.932 283.442 187.425 283.445 188.614C283.448 189.835 282.624 191.323 281.603 191.937C280.583 192.551 279.753 192.058 279.75 190.836C279.746 189.648 280.571 188.16 281.591 187.546V187.546Z" fill="#F3F1FC"/>
<path d="M285.214 147.347C284.224 146.744 282.848 146.831 281.337 147.742C278.322 149.551 275.897 153.945 275.91 157.549C275.91 159.345 276.521 160.604 277.498 161.2L255.101 147.792C254.117 147.196 253.512 145.936 253.506 144.141C253.499 140.537 255.924 136.142 258.939 134.334C260.45 133.422 261.82 133.335 262.817 133.938L285.214 147.347Z" fill="#F3F1FC"/>
<path d="M299.614 156.567C299.614 161.327 296.373 167.194 292.388 169.63C290.317 170.903 288.404 170.903 287.075 170.017C286.916 169.907 286.704 169.74 286.544 169.575C286.651 169.685 286.757 169.796 286.863 169.907L272.731 161.382C271.403 160.552 270.605 158.892 270.605 156.511C270.605 151.696 273.793 145.828 277.831 143.448C279.85 142.231 281.656 142.12 282.985 142.895L297.489 151.64V151.696C298.817 152.471 299.614 154.131 299.614 156.567V156.567Z" fill="#111D33"/>
<path d="M297.496 151.683C296.176 150.879 294.342 150.995 292.328 152.21C288.309 154.62 285.078 160.477 285.095 165.281C285.095 167.674 285.909 169.352 287.212 170.147L272.72 161.37C271.409 160.576 270.603 158.897 270.595 156.504C270.586 151.701 273.817 145.844 277.836 143.433C279.85 142.219 281.676 142.103 283.004 142.906L297.496 151.683Z" fill="#4C5C75"/>
<path d="M292.329 152.206C296.34 149.793 299.606 151.739 299.619 156.541C299.633 161.348 296.387 167.204 292.377 169.617C288.361 172.032 285.105 170.087 285.092 165.279C285.079 160.477 288.313 154.622 292.329 152.206Z" fill="#1D2943"/>
<path d="M298.743 156.508C298.791 161.084 295.751 166.565 291.987 168.827C290.925 169.481 289.96 169.783 289.139 169.783C288.367 169.783 287.691 169.531 287.209 168.978C287.161 168.978 287.161 168.978 287.112 168.878C287.112 168.878 287.112 168.878 287.064 168.878C286.823 168.626 286.63 168.325 286.485 167.922C286.147 167.218 285.954 166.313 285.954 165.257C285.954 160.782 288.946 155.251 292.759 152.939C293.676 152.436 294.593 152.134 295.365 152.084H295.558C295.703 152.084 295.848 152.084 295.993 152.134C296.089 152.084 296.185 152.134 296.282 152.134C297.826 152.536 298.743 154.095 298.743 156.508V156.508Z" fill="#4C5C75"/>
<path d="M295.848 154.648C295.896 159.224 292.807 164.704 289.043 166.967C288.126 167.57 287.257 167.872 286.485 167.922C286.147 167.218 285.954 166.313 285.954 165.257C285.954 160.782 288.946 155.251 292.759 152.939C293.676 152.436 294.593 152.134 295.365 152.084C295.703 152.788 295.848 153.643 295.848 154.648V154.648Z" fill="#111D33"/>
<path d="M293.345 158.78C293.345 159.998 292.495 161.493 291.485 162.101C290.954 162.434 290.476 162.434 290.157 162.212L288.989 161.548C288.67 161.327 288.457 160.939 288.457 160.275C288.457 159.113 289.307 157.618 290.317 157.009C290.848 156.677 291.273 156.677 291.645 156.898L292.601 157.507L292.76 157.618C292.753 157.61 292.738 157.613 292.729 157.606C293.078 157.773 293.345 158.147 293.345 158.78V158.78Z" fill="#F3F1FC"/>
<path d="M292.777 157.591C292.474 157.367 291.999 157.412 291.481 157.727C290.444 158.312 289.624 159.797 289.624 161.012C289.624 161.597 289.839 162.047 290.185 162.227L288.992 161.553C288.69 161.328 288.474 160.923 288.474 160.293C288.474 159.123 289.294 157.638 290.331 157.008C290.849 156.693 291.281 156.693 291.627 156.873L292.777 157.591Z" fill="#C9CEE2"/>
<path d="M291.476 157.708C292.496 157.094 293.326 157.587 293.329 158.776C293.333 159.997 292.508 161.486 291.488 162.099C290.467 162.713 289.637 162.22 289.634 160.999C289.631 159.81 290.455 158.322 291.476 157.708V157.708Z" fill="#F3F1FC"/>
<path d="M262.848 200.025L262.836 204.719L220.17 191.729L220.183 187.035L262.848 200.025Z" fill="#BFC8D0"/>
<path d="M285.107 130.538C285.107 130.986 285.021 131.433 284.886 131.881C285.531 129.697 284.608 127.441 282.32 125.702L267.204 114.197L220.184 187.035L262.848 200.026L262.848 200.027L262.834 204.718L285.094 135.851C285.255 135.362 285.335 134.873 285.335 134.384L285.107 130.538Z" fill="#497BFE"/>
<path d="M285.107 130.538L285.335 134.384C285.335 134.873 285.254 135.362 285.094 135.851L262.834 204.718L262.847 200.027L284.866 132.004C285.026 131.515 285.107 131.027 285.107 130.538Z" fill="#A3A9E1"/>
<path d="M267.204 114.197L282.32 125.702C284.651 127.474 285.587 129.783 284.869 132.006L262.849 200.026L220.184 187.035L267.204 114.197Z" fill="#2E378B"/>
<path d="M298.912 265.851C283.758 265.952 268.652 262.734 254.753 256.499C253.827 256.085 173.298 208.063 160.885 200.034C131.687 181.179 103.792 159.005 83.9082 129.893C82.4118 127.781 81.1089 125.116 80.4815 122.552V122.501C79.8541 119.535 80.192 116.669 82.4601 114.859C84.8249 112.948 88.1549 113.4 91.0991 114.054C99.9307 116.015 108.57 118.881 117.015 122.149C160.933 138.893 200.99 164.636 241.819 188.268C255.284 196.062 268.893 203.654 281.007 213.509C291.238 221.856 300.457 231.912 306.489 243.828V243.879C307.599 246.041 308.613 248.253 309.481 250.516C313.307 260.275 309.947 265.851 298.912 265.851V265.851Z" fill="#DEDFFB"/>
<path d="M295.92 259.164C280.766 259.264 265.612 256.046 251.761 249.812C245.451 246.995 239.239 242.785 232.118 238.197C207.17 222.528 181.575 208.697 157.844 193.347C128.694 174.492 100.8 152.318 80.9157 123.205C80.7711 123.004 80.6262 122.753 80.4815 122.552V122.501C79.8541 119.535 80.192 116.669 82.4601 114.859C84.8249 112.948 88.1549 113.4 91.0991 114.054C99.9307 116.015 108.57 118.881 117.015 122.149C160.933 138.893 200.99 164.636 241.819 188.268C255.284 196.062 268.893 203.654 281.007 213.509C291.238 221.856 300.457 231.912 306.489 243.828V243.879C310.405 254.224 306.414 259.164 295.92 259.164V259.164Z" fill="#F3F1FC"/>
<path d="M300.939 234.527C299.105 235.885 296.402 237.695 294.038 238.851L290.756 230.555C290.756 230.555 292.879 229.65 295.099 227.086C297.174 229.449 299.105 231.963 300.939 234.527Z" fill="#2E378B"/>
<path d="M273.905 233.576C279.625 234.436 284.841 233.933 289.296 231.37L292.703 239.284C287.197 242.534 281.273 243.352 275.03 242.339L273.905 233.576Z" fill="#2E378B"/>
<path d="M191.176 202.559C191.694 202.871 192.108 203.619 192.107 204.232L192.093 209.303C192.091 209.916 191.674 210.164 191.156 209.852L188.42 208.207C187.908 207.898 187.488 207.147 187.489 206.534L187.503 201.463C187.505 200.849 187.928 200.605 188.44 200.913L191.176 202.559Z" fill="#2E378B"/>
<path d="M198.707 207.089C199.226 207.401 199.64 208.149 199.638 208.762L199.625 213.833C199.623 214.446 199.206 214.694 198.688 214.382L195.952 212.737C195.44 212.429 195.019 211.677 195.021 211.064L195.035 205.993C195.036 205.38 195.46 205.136 195.972 205.444L198.707 207.089Z" fill="#2E378B"/>
<path d="M176.111 193.715C176.629 194.027 177.044 194.775 177.042 195.388L177.028 200.459C177.027 201.072 176.61 201.32 176.091 201.008L173.356 199.363C172.844 199.055 172.423 198.303 172.425 197.69L172.439 192.619C172.44 192.006 172.863 191.762 173.376 192.07L176.111 193.715Z" fill="#423D9B"/>
<path d="M168.579 189.258C169.097 189.57 169.512 190.318 169.51 190.931L169.496 196.002C169.495 196.615 169.077 196.863 168.559 196.551L165.824 194.906C165.311 194.598 164.891 193.846 164.893 193.233L164.906 188.162C164.908 187.549 165.331 187.305 165.843 187.613L168.579 189.258Z" fill="#423D9B"/>
<path d="M206.24 211.621C206.758 211.932 207.172 212.68 207.171 213.293L207.157 218.364C207.155 218.978 206.738 219.225 206.22 218.914L203.484 217.268C202.972 216.96 202.552 216.209 202.553 215.595L202.567 210.524C202.569 209.911 202.992 209.667 203.504 209.975L206.24 211.621Z" fill="#2E378B"/>
<path d="M213.772 216.151C214.29 216.463 214.705 217.21 214.703 217.823L214.689 222.895C214.687 223.508 214.27 223.756 213.752 223.444L211.016 221.798C210.504 221.49 210.084 220.739 210.085 220.126L210.099 215.054C210.101 214.441 210.524 214.197 211.036 214.505L213.772 216.151Z" fill="#2E378B"/>
<path d="M221.304 220.681C221.822 220.993 222.237 221.741 222.235 222.354L222.221 227.425C222.22 228.038 221.803 228.286 221.284 227.974L218.549 226.329C218.036 226.021 217.616 225.269 217.618 224.656L217.631 219.585C217.633 218.972 218.056 218.727 218.568 219.036L221.304 220.681Z" fill="#2E378B"/>
<path d="M228.836 225.212C229.355 225.524 229.769 226.272 229.767 226.885L229.754 231.956C229.752 232.569 229.335 232.817 228.817 232.505L226.081 230.86C225.569 230.552 225.148 229.8 225.15 229.187L225.164 224.116C225.165 223.503 225.589 223.259 226.101 223.567L228.836 225.212Z" fill="#2E378B"/>
<path d="M236.368 229.743C236.886 230.054 237.301 230.802 237.299 231.415L237.285 236.487C237.284 237.1 236.866 237.347 236.348 237.036L233.613 235.39C233.1 235.082 232.68 234.331 232.682 233.717L232.695 228.646C232.697 228.033 233.12 227.789 233.632 228.097L236.368 229.743Z" fill="#2E378B"/>
<path d="M243.9 234.274C244.419 234.586 244.833 235.333 244.831 235.947L244.817 241.018C244.816 241.631 244.399 241.879 243.88 241.567L241.145 239.921C240.633 239.613 240.212 238.862 240.214 238.249L240.228 233.177C240.229 232.564 240.652 232.32 241.165 232.628L243.9 234.274Z" fill="#2E378B"/>
<path d="M118.284 134.481L116.424 135.699L94.3755 123.19V85.0517L95.8098 84L102.239 87.2105L118.284 134.481Z" fill="#497BFE"/>
<path d="M94.356 123.204V85.043L100.61 88.0214L116.423 135.677L94.356 123.204Z" fill="#2E378B"/>
<path d="M102.218 87.1836L95.8159 84.0059L94.356 85.0429L100.61 88.0213L102.218 87.1837V87.1836Z" fill="#A3A9E1"/>
<path d="M118.299 134.467L102.218 87.1836L100.61 88.0212L116.423 135.677L118.299 134.467Z" fill="#A3A9E1"/>
<path d="M90.1423 134.461L56.1475 146.319L56 148.081L58.0695 150.138L103.362 146.874L103.583 144.232L90.1423 134.461Z" fill="#497BFE"/>
<path d="M90.1423 134.461L56.1475 146.319L58.4608 148.678L103.583 144.232L90.1423 134.461Z" fill="#2E378B"/>
<path d="M56.1476 146.319L56 148.081L58.0696 150.138L58.4609 148.679L56.1476 146.319Z" fill="#A3A9E1"/>
<path d="M103.583 144.231L58.4606 148.678L58.0693 150.137L103.361 146.874L103.583 144.231Z" fill="#A3A9E1"/>
<path d="M194.462 243.313C193.472 242.71 192.096 242.797 190.585 243.708C187.569 245.517 185.145 249.911 185.158 253.515C185.158 255.311 185.769 256.57 186.746 257.166L164.348 243.758C163.364 243.162 162.76 241.902 162.753 240.107C162.747 236.503 165.171 232.108 168.187 230.299C169.698 229.388 171.067 229.301 172.064 229.904L194.462 243.313Z" fill="#F3F1FC"/>
<path d="M208.869 252.492C208.869 257.308 205.628 263.175 201.644 265.555C199.571 266.828 197.659 266.883 196.331 265.998C196.384 266.053 196.384 266.053 196.437 266.109L181.986 257.363C180.657 256.533 179.86 254.872 179.86 252.492C179.86 247.676 183.048 241.809 187.086 239.374C189.105 238.211 190.911 238.045 192.24 238.875L206.691 247.621H206.744C208.019 248.451 208.869 250.112 208.869 252.492V252.492Z" fill="#111D33"/>
<path d="M206.744 247.649C205.424 246.845 203.59 246.961 201.576 248.175C197.557 250.586 194.326 256.443 194.343 261.247C194.343 263.64 195.157 265.318 196.46 266.113L181.968 257.336C180.657 256.541 179.851 254.863 179.843 252.47C179.834 247.666 183.065 241.809 187.084 239.399C189.098 238.184 190.924 238.068 192.252 238.872L206.744 247.649Z" fill="#4C5C75"/>
<path d="M201.577 248.172C205.588 245.759 208.854 247.705 208.867 252.506C208.88 257.314 205.635 263.17 201.624 265.582C197.608 267.998 194.353 266.052 194.34 261.244C194.327 256.443 197.561 250.587 201.577 248.172V248.172Z" fill="#1D2943"/>
<path d="M207.991 252.473C208.04 257.049 204.999 262.529 201.235 264.792C200.173 265.446 199.208 265.747 198.387 265.747C197.615 265.747 196.939 265.496 196.457 264.943C196.409 264.943 196.409 264.943 196.36 264.842C196.36 264.842 196.36 264.842 196.312 264.842C196.071 264.591 195.878 264.289 195.733 263.887C195.395 263.183 195.202 262.278 195.202 261.222C195.202 256.747 198.194 251.216 202.007 248.904C202.924 248.401 203.841 248.099 204.613 248.049H204.806C204.951 248.049 205.096 248.049 205.241 248.099C205.337 248.049 205.434 248.099 205.53 248.099C207.074 248.501 207.991 250.06 207.991 252.473V252.473Z" fill="#4C5C75"/>
<path d="M205.096 250.613C205.144 255.189 202.055 260.669 198.291 262.932C197.374 263.535 196.505 263.837 195.733 263.887C195.395 263.183 195.202 262.278 195.202 261.222C195.202 256.747 198.194 251.216 202.007 248.904C202.924 248.401 203.841 248.099 204.613 248.049C204.951 248.753 205.096 249.608 205.096 250.613Z" fill="#111D33"/>
<path d="M152.389 249.9C151.398 249.297 150.022 249.384 148.511 250.295C145.496 252.104 143.071 256.498 143.084 260.102C143.084 261.898 143.695 263.157 144.672 263.753L118.779 248.469C117.795 247.872 117.191 246.613 117.184 244.818C117.178 241.214 123.098 238.695 126.113 236.886C127.624 235.975 128.994 235.888 129.991 236.491L152.389 249.9Z" fill="#F3F1FC"/>
<path d="M166.791 259.079C166.791 263.895 163.55 269.762 159.565 272.197C157.493 273.415 155.634 273.47 154.305 272.64C154.252 272.585 154.252 272.585 154.252 272.585L139.908 263.95C138.579 263.12 137.782 261.459 137.782 259.079C137.782 254.263 140.97 248.396 145.008 245.961C147.027 244.798 148.833 244.632 150.161 245.462L164.666 254.208C165.994 255.038 166.791 256.699 166.791 259.079V259.079Z" fill="#111D33"/>
<path d="M164.67 254.237C163.35 253.433 161.516 253.549 159.502 254.763C155.483 257.174 152.252 263.031 152.269 267.835C152.269 270.227 153.083 271.906 154.386 272.701L139.894 263.924C138.583 263.129 137.778 261.451 137.769 259.058C137.761 254.254 140.991 248.397 145.011 245.987C147.025 244.772 148.85 244.656 150.178 245.46L164.67 254.237Z" fill="#4C5C75"/>
<path d="M159.503 254.76C163.514 252.347 166.78 254.293 166.793 259.094C166.806 263.902 163.561 269.758 159.551 272.17C155.534 274.586 152.279 272.64 152.266 267.832C152.253 263.031 155.487 257.175 159.503 254.76V254.76Z" fill="#1D2943"/>
<path d="M165.917 259.061C165.966 263.637 162.925 269.117 159.161 271.38C158.099 272.034 157.134 272.335 156.314 272.335C155.541 272.335 154.866 272.084 154.383 271.531C154.335 271.531 154.335 271.531 154.287 271.43C154.287 271.43 154.287 271.43 154.238 271.43C153.997 271.179 153.804 270.877 153.659 270.475C153.321 269.771 153.128 268.866 153.128 267.81C153.128 263.335 156.121 257.804 159.933 255.491C160.85 254.988 161.767 254.687 162.539 254.637H162.732C162.877 254.637 163.022 254.637 163.167 254.687C163.263 254.637 163.36 254.687 163.456 254.687C165.001 255.089 165.917 256.648 165.917 259.061V259.061Z" fill="#4C5C75"/>
<path d="M163.022 257.201C163.07 261.776 159.981 267.257 156.217 269.52C155.3 270.123 154.431 270.425 153.659 270.475C153.321 269.771 153.128 268.866 153.128 267.81C153.128 263.335 156.121 257.804 159.933 255.491C160.85 254.988 161.767 254.687 162.539 254.637C162.877 255.34 163.022 256.195 163.022 257.201Z" fill="#111D33"/>
<path d="M160.521 261.349C160.521 262.567 159.671 264.061 158.662 264.67C158.131 265.002 157.599 265.002 157.28 264.726L156.165 264.116C155.846 263.895 155.633 263.452 155.633 262.843C155.633 261.681 156.484 260.187 157.493 259.578C158.024 259.246 158.449 259.246 158.821 259.412L159.831 260.076C158.902 259.592 159.53 259.888 159.831 260.076C159.884 260.076 159.884 260.076 159.937 260.131C160.309 260.297 160.521 260.74 160.521 261.349V261.349Z" fill="#C9CEE2"/>
<path d="M159.951 260.144C159.649 259.919 159.174 259.964 158.655 260.279C157.619 260.864 156.798 262.349 156.798 263.564C156.798 264.149 157.014 264.599 157.359 264.779L156.166 264.106C155.864 263.881 155.648 263.475 155.648 262.845C155.648 261.676 156.469 260.19 157.505 259.56C158.024 259.245 158.455 259.245 158.801 259.425L159.951 260.144Z" fill="#C9CEE2"/>
<path d="M158.65 260.262C159.67 259.648 160.5 260.141 160.504 261.329C160.507 262.551 159.682 264.039 158.662 264.653C157.641 265.267 156.811 264.774 156.808 263.552C156.805 262.364 157.63 260.876 158.65 260.262Z" fill="#F3F1FC"/>
<path d="M112.333 246.847C112.12 246.792 111.855 246.792 111.642 246.736C111.164 246.626 110.686 246.515 110.208 246.404C109.995 246.349 109.783 246.238 109.517 246.183C110.42 246.459 111.377 246.681 112.333 246.847V246.847Z" fill="#497BFE"/>
<path d="M223.055 234.392L187.564 212.86L88.6377 236.385L88.5845 241.034L107.711 250.168C110.686 251.552 114.512 252.105 118.178 251.662L229.537 238.322L223.055 234.392ZM111.643 246.736C111.164 246.625 110.686 246.514 110.208 246.404C109.996 246.348 109.783 246.238 109.517 246.182C110.421 246.459 111.377 246.68 112.333 246.846C112.121 246.791 111.855 246.791 111.643 246.736V246.736Z" fill="#497BFE"/>
<path d="M112.333 246.847C112.12 246.792 111.855 246.792 111.642 246.736C111.164 246.626 110.686 246.515 110.208 246.404C109.995 246.349 109.783 246.238 109.517 246.183C110.42 246.459 111.377 246.681 112.333 246.847V246.847Z" fill="#57B3FE"/>
<path d="M229.526 238.31L118.161 251.671C114.489 252.104 110.67 251.56 107.708 250.149L88.5981 241.06L88.6116 236.369L107.722 245.458C108.298 245.724 108.901 245.961 109.531 246.17C110.429 246.463 111.38 246.701 112.359 246.854C113.444 247.036 114.57 247.12 115.696 247.12C116.513 247.12 117.357 247.064 118.175 246.966L223.067 234.4L229.526 238.31Z" fill="#A3A9E1"/>
<path d="M223.067 234.4L118.175 246.98C117.358 247.078 116.527 247.12 115.696 247.12C114.57 247.12 113.444 247.036 112.359 246.854C112.118 246.812 111.876 246.771 111.635 246.729C111.153 246.631 110.67 246.505 110.215 246.38C109.987 246.324 109.759 246.254 109.531 246.17C108.901 245.975 108.298 245.723 107.722 245.458L88.6118 236.369L187.54 212.885L223.067 234.4Z" fill="#2E378B"/>
<path d="M202.494 255.371C202.494 256.589 201.644 258.083 200.634 258.692C200.156 258.969 199.678 259.024 199.359 258.859L198.137 258.139C197.818 257.917 197.606 257.53 197.606 256.921C197.606 255.703 198.456 254.264 199.465 253.6C199.997 253.323 200.422 253.323 200.794 253.489L201.75 254.098L201.909 254.209C201.904 254.204 201.893 254.208 201.887 254.203C202.23 254.374 202.494 254.745 202.494 255.371Z" fill="#C9CEE2"/>
<path d="M201.925 254.195C201.623 253.97 201.148 254.015 200.629 254.33C199.593 254.915 198.772 256.4 198.772 257.615C198.772 258.2 198.988 258.65 199.334 258.83L198.14 258.156C197.838 257.931 197.622 257.526 197.622 256.896C197.622 255.726 198.443 254.241 199.479 253.611C199.998 253.296 200.43 253.296 200.775 253.476L201.925 254.195Z" fill="#C9CEE2"/>
<path d="M200.625 254.312C201.645 253.698 202.475 254.191 202.478 255.379C202.482 256.601 201.657 258.089 200.637 258.703C199.616 259.317 198.786 258.824 198.783 257.602C198.779 256.414 199.604 254.925 200.625 254.312Z" fill="#F3F1FC"/>
<path d="M239 122.904L199.034 141.983L164.143 125.156L164 90.1381L178.442 83.2058L183.376 80.836L184.734 80.2432L189.668 77.8734L203.967 71L238.857 87.8276L239 122.904Z" fill="#F9A83D"/>
<path d="M164.025 90.123L198.937 106.937L199.068 141.999L164.155 125.185L164.025 90.123Z" fill="#F9A83D"/>
<path d="M238.866 87.8326L198.937 106.937L164.025 90.1233L203.954 71.0186L238.866 87.8326Z" fill="#FFD06C"/>
<path d="M238.866 87.833L238.997 122.895L199.068 142L198.938 106.938L238.866 87.833Z" fill="#FEBC1F"/>
<path d="M178.428 83.2319L189.681 77.8477L224.594 94.6618L213.34 100.046L178.428 83.2319Z" fill="#F3F1FC"/>
<path d="M213.34 100.045V111.683L218.967 104.295L224.593 106.227V94.6611L213.34 100.045Z" fill="#DEDFFB"/>
<path d="M183.39 80.857L184.719 80.2207L219.632 97.0349L218.302 97.6711L183.39 80.857Z" fill="#E9E7FC"/>
<path d="M208.452 134.496L208.455 135.461L201.557 138.762L201.554 137.797L208.452 134.496Z" fill="#4C5C75"/>
<path d="M203.116 131.295L204.631 132.48L203.593 132.977L203.604 136.227L202.64 136.688L202.628 133.439L201.615 133.924L203.116 131.295Z" fill="#4C5C75"/>
<path d="M206.85 129.507L208.365 130.692L207.351 131.177L207.362 134.427L206.398 134.888L206.387 131.639L205.349 132.136L206.85 129.507Z" fill="#4C5C75"/>
<path d="M213.502 128.872C213.502 128.754 213.454 128.715 213.312 128.754C213.217 128.833 213.121 128.951 213.121 129.069V129.856L210.414 131.155C210.414 129.778 211.507 128.085 212.932 127.258V127.061C212.932 126.865 213.074 126.668 213.264 126.55C213.454 126.471 213.644 126.55 213.644 126.746V126.943C214.261 126.668 214.879 126.707 215.306 126.904C215.829 127.14 216.161 127.652 216.161 128.439L213.502 129.699V128.872V128.872Z" fill="#4C5C75"/>
<path d="M213.502 128.873V129.7L213.122 129.857V129.07C213.122 128.952 213.217 128.834 213.312 128.755C213.454 128.716 213.502 128.755 213.502 128.873Z" fill="#4C5C75"/>
<path d="M213.549 132.18C213.549 132.652 213.121 133.282 212.599 133.518C212.077 133.754 211.649 133.557 211.649 133.085C211.649 132.967 211.744 132.849 211.839 132.77C211.934 132.731 212.029 132.77 212.029 132.888C212.029 133.164 212.266 133.282 212.599 133.124C212.884 133.006 213.121 132.652 213.121 132.376V129.07C213.121 128.952 213.216 128.834 213.312 128.755C213.454 128.716 213.501 128.755 213.501 128.873V129.7L213.549 132.18Z" fill="#4C5C75"/>
<path d="M122 211.904L82.0336 230.983L47.1431 214.156L47 179.138L61.4425 172.206L66.3758 169.836L67.7342 169.243L72.6675 166.873L86.9669 160L121.857 176.828L122 211.904Z" fill="#F9A83D"/>
<path d="M47.0249 179.123L81.9374 195.937L82.0675 230.999L47.155 214.185L47.0249 179.123Z" fill="#F9A83D"/>
<path d="M121.866 176.833L81.9374 195.937L47.0249 179.123L86.9539 160.019L121.866 176.833Z" fill="#FFD06C"/>
<path d="M121.866 176.833L121.997 211.895L82.0676 231L81.9375 195.938L121.866 176.833Z" fill="#FEBC1F"/>
<path d="M61.4282 172.232L72.6814 166.848L107.594 183.662L96.3405 189.046L61.4282 172.232Z" fill="#F3F1FC"/>
<path d="M96.3403 189.045V200.683L101.967 193.295L107.593 195.227V183.661L96.3403 189.045Z" fill="#DEDFFB"/>
<path d="M66.3896 169.857L67.7194 169.221L102.632 186.035L101.302 186.671L66.3896 169.857Z" fill="#E9E7FC"/>
<path d="M91.452 223.496L91.4553 224.461L84.557 227.762L84.5537 226.797L91.452 223.496Z" fill="#4C5C75"/>
<path d="M86.1165 220.295L87.6312 221.48L86.5928 221.977L86.6039 225.227L85.6396 225.688L85.6285 222.439L84.6147 222.924L86.1165 220.295Z" fill="#4C5C75"/>
<path d="M89.8503 218.507L91.3651 219.692L90.3514 220.177L90.3625 223.427L89.3982 223.888L89.3871 220.639L88.3486 221.136L89.8503 218.507Z" fill="#4C5C75"/>
<path d="M96.5015 217.872C96.5015 217.754 96.454 217.715 96.3116 217.754C96.2166 217.833 96.1215 217.951 96.1215 218.069V218.856L93.4141 220.155C93.4141 218.778 94.5067 217.085 95.9316 216.258V216.061C95.9316 215.865 96.0739 215.668 96.2641 215.55C96.454 215.471 96.6439 215.55 96.6439 215.746V215.943C97.2614 215.668 97.8789 215.707 98.3065 215.904C98.8289 216.14 99.1614 216.652 99.1614 217.439L96.5015 218.699V217.872V217.872Z" fill="#4C5C75"/>
<path d="M96.5016 217.873V218.7L96.1216 218.857V218.07C96.1216 217.952 96.2167 217.834 96.3118 217.755C96.4541 217.716 96.5016 217.755 96.5016 217.873Z" fill="#4C5C75"/>
<path d="M96.5489 221.18C96.5489 221.652 96.1213 222.282 95.5989 222.518C95.0765 222.754 94.6489 222.557 94.6489 222.085C94.6489 221.967 94.744 221.849 94.8391 221.77C94.9339 221.731 95.029 221.77 95.029 221.888C95.029 222.164 95.2664 222.282 95.5989 222.124C95.8839 222.006 96.1213 221.652 96.1213 221.376V218.07C96.1213 217.952 96.2164 217.834 96.3115 217.755C96.4539 217.716 96.5014 217.755 96.5014 217.873V218.7L96.5489 221.18Z" fill="#4C5C75"/>
<path d="M301.012 390.546L360.304 418.708C384.383 430.145 412.023 433.757 438.502 428.518C492.487 417.836 540.973 401.051 581.006 379.727C624.982 356.306 658.721 327.415 678.385 295.151L678.228 244.068C658.564 276.357 624.825 305.247 580.849 328.668C509.088 366.884 410.142 390.546 301.012 390.546Z" fill="#4C5C75"/>
<path d="M417.686 241.162C461.648 217.742 515.808 199.796 576.27 189.4L678.225 244.071C658.577 276.352 624.818 305.244 580.857 328.663C509.095 366.893 410.147 390.54 301.001 390.546C301.357 332.205 345.925 279.391 417.686 241.162Z" fill="#E93565"/>
<path d="M417.687 241.161C345.925 279.391 301.357 332.205 301.001 390.545C410.147 390.54 509.095 366.893 580.857 328.663C624.818 305.244 658.577 276.352 678.225 244.071L576.27 189.4C515.809 199.796 461.648 217.742 417.687 241.161V241.161Z" fill="#F45170"/>
<path d="M313.18 379.991C314.557 379.991 315.933 379.921 317.31 379.85C414.825 377.804 505.915 356.562 575.208 319.583C606.795 302.787 632.646 283.168 651.384 261.855C655.361 257.268 659.108 252.611 662.474 247.882L574.29 200.67C517.846 210.762 465.838 227.911 423.544 250.423C357.157 285.779 318.457 331.438 313.18 379.991V379.991Z" fill="#E93565"/>
<path d="M317.309 379.849C414.824 377.803 505.915 356.561 575.207 319.582C606.795 302.786 632.646 283.167 651.384 261.855L574.29 220.5C517.846 230.592 465.838 247.74 423.543 270.253C366.335 300.739 329.7 338.847 317.309 379.849Z" fill="#F3F1FC"/>
<path d="M484.23 199.133L484.466 260.869L571.186 307.298L631.882 274.943L631.568 213.28L617.966 205.953L617.73 164.747L579.363 185.205L544.926 166.778L535.964 171.566L502.785 153.72L502.942 189.122L484.23 199.133Z" fill="#B0B8CF"/>
<path d="M484.194 199.126L484.48 260.853L571.149 307.327L570.863 245.6L484.194 199.126Z" fill="#C9CEE2"/>
<path d="M570.862 245.6L571.149 307.327L631.88 274.974L631.594 213.247L570.862 245.6Z" fill="#B0B8CF"/>
<path d="M484.195 199.127L570.863 245.601L631.595 213.247L544.926 166.773L484.195 199.127Z" fill="#E3E7F0"/>
<path d="M502.811 153.756L503.035 201.897L570.628 238.142L570.405 190.001L502.811 153.756Z" fill="#C9CEE2"/>
<path d="M570.404 190.001L570.628 238.142L617.992 212.91L617.769 164.769L570.404 190.001Z" fill="#B0B8CF"/>
<path d="M502.812 153.756L570.405 190.001L617.77 164.769L550.176 128.523L502.812 153.756Z" fill="#E3E7F0"/>
<path d="M608.612 164.757L550.168 133.417L511.968 153.768L570.412 185.108L608.612 164.757Z" fill="#C9CEE2"/>
<path d="M490.442 230.11L510.019 240.556V237.509L493.351 228.586L493.429 210.812L490.521 209.289L490.442 230.11Z" fill="white"/>
<path d="M490.465 230.098L490.542 209.279L493.448 210.832L493.372 228.616L490.465 230.098Z" fill="#F3F1FC"/>
<path d="M493.372 228.616L510.045 237.508V240.543L490.466 230.098L493.372 228.616Z" fill="white"/>
<path d="M493.448 210.832L510.121 219.724L510.045 237.508L493.371 228.616L493.448 210.832Z" fill="#423D9B"/>
<path d="M517.881 244.693L537.458 255.14V252.092L520.712 243.169L520.79 225.396L517.959 223.872L517.881 244.693Z" fill="#F3F1FC"/>
<path d="M517.843 244.668L517.92 223.85L520.826 225.402L520.75 243.186L517.843 244.668Z" fill="#F3F1FC"/>
<path d="M520.75 243.187L537.423 252.079V255.113L517.843 244.669L520.75 243.187Z" fill="white"/>
<path d="M520.827 225.402L537.5 234.294L537.423 252.078L520.75 243.186L520.827 225.402Z" fill="#423D9B"/>
<path d="M545.241 259.202L564.817 269.649V266.674L548.15 257.751L548.228 239.978L545.319 238.454L545.241 259.202Z" fill="#F3F1FC"/>
<path d="M545.221 259.238L545.298 238.419L548.204 239.971L548.128 257.755L545.221 259.238Z" fill="#F3F1FC"/>
<path d="M548.128 257.756L564.801 266.648V269.682L545.221 259.238L548.128 257.756Z" fill="white"/>
<path d="M548.204 239.971L564.877 248.863L564.8 266.647L548.127 257.755L548.204 239.971Z" fill="#423D9B"/>
<path d="M510.648 193.618L532.348 205.226V201.816L513.872 191.95L513.95 172.29L510.727 170.549L510.648 193.618Z" fill="white"/>
<path d="M510.661 193.626L510.746 170.558L513.967 172.278L513.882 191.984L510.661 193.626Z" fill="#F3F1FC"/>
<path d="M513.881 191.983L532.356 201.837V205.199L510.661 193.626L513.881 191.983Z" fill="white"/>
<path d="M513.966 172.276L532.441 182.129L532.357 201.836L513.881 191.983L513.966 172.276Z" fill="#423D9B"/>
<path d="M540.996 209.796L562.695 221.331V217.994L544.219 208.128L544.298 188.395L541.074 186.727L540.996 209.796Z" fill="white"/>
<path d="M544.303 188.42L562.778 198.273L562.693 217.979L544.218 208.126L544.303 188.42Z" fill="#423D9B"/>
<path d="M583.373 215.385V218.795L605.072 207.188L604.994 184.118L601.77 185.859L601.849 205.592L583.373 215.385Z" fill="#F3F1FC"/>
<path d="M605.087 207.203L605.002 184.135L601.782 185.855L601.866 205.561L605.087 207.203Z" fill="#F3F1FC"/>
<path d="M601.866 205.562L583.391 215.415V218.777L605.087 207.204L601.866 205.562Z" fill="white"/>
<path d="M540.996 209.769L541.081 186.7L544.302 188.42L544.217 208.127L540.996 209.769Z" fill="#F3F1FC"/>
<path d="M544.217 208.127L562.692 217.98V221.343L540.997 209.769L544.217 208.127Z" fill="white"/>
<path d="M601.866 205.562L583.391 215.415V218.777L605.087 207.204L601.866 205.562Z" fill="white"/>
<path d="M601.782 185.856L583.307 195.71L583.392 215.416L601.867 205.563L601.782 185.856Z" fill="#423D9B"/>
<path d="M490.443 257.606L510.02 268.052V265.005L493.352 256.082L493.43 238.309L490.521 236.785L490.443 257.606Z" fill="white"/>
<path d="M490.466 257.593L490.543 236.774L493.449 238.327L493.373 256.111L490.466 257.593Z" fill="#F3F1FC"/>
<path d="M493.373 256.111L510.046 265.003V268.038L490.466 257.593L493.373 256.111Z" fill="white"/>
<path d="M493.449 238.326L510.122 247.218L510.046 265.002L493.372 256.11L493.449 238.326Z" fill="#423D9B"/>
<path d="M517.881 272.186L537.458 282.632V279.586L520.712 270.662L520.79 252.888L517.959 251.365L517.881 272.186Z" fill="#F3F1FC"/>
<path d="M517.843 272.16L517.92 251.342L520.826 252.894L520.75 270.678L517.843 272.16Z" fill="#F3F1FC"/>
<path d="M520.75 270.679L537.423 279.571V282.605L517.843 272.161L520.75 270.679Z" fill="white"/>
<path d="M520.827 252.894L537.5 261.786L537.423 279.57L520.75 270.678L520.827 252.894Z" fill="#423D9B"/>
<path d="M545.242 286.695L564.818 297.141V294.166L548.151 285.244L548.229 267.47L545.32 265.874L545.242 286.695Z" fill="#F3F1FC"/>
<path d="M545.222 286.727L545.299 265.908L548.205 267.461L548.129 285.245L545.222 286.727Z" fill="#F3F1FC"/>
<path d="M548.129 285.246L564.802 294.138V297.173L545.222 286.728L548.129 285.246Z" fill="white"/>
<path d="M548.205 267.462L564.878 276.354L564.801 294.138L548.128 285.246L548.205 267.462Z" fill="#423D9B"/>
<path d="M586.44 279.586V284.301L616.474 268.269L616.316 236.276L611.913 238.67L611.992 265.948L586.44 279.586Z" fill="#F3F1FC"/>
<path d="M616.456 268.249L616.339 236.296L611.878 238.679L611.995 265.974L616.456 268.249Z" fill="#F3F1FC"/>
<path d="M611.995 265.974L586.405 279.622V284.279L616.456 268.248L611.995 265.974Z" fill="white"/>
<path d="M611.879 238.678L586.288 252.326L586.406 279.621L611.996 265.974L611.879 238.678Z" fill="#423D9B"/>
<path d="M549.32 105.837L549.54 159.98C549.546 161.711 550.785 163.439 553.261 164.767C558.216 167.424 566.252 167.424 571.268 164.752C573.786 163.411 575.046 161.649 575.041 159.891L574.821 105.747C574.826 107.505 573.565 109.267 571.048 110.608C566.031 113.28 557.996 113.28 553.041 110.623C550.565 109.296 549.325 107.567 549.32 105.837V105.837Z" fill="#F45170"/>
<path d="M549.319 105.852L549.319 115.536C549.324 117.266 550.564 118.995 553.04 120.322C557.995 122.979 566.031 122.979 571.047 120.307C573.564 118.966 574.865 117.206 574.859 115.448L574.82 105.763C574.825 107.521 573.564 109.283 571.047 110.624C566.031 113.296 557.995 113.296 553.04 110.639C550.564 109.311 549.325 107.583 549.319 105.852Z" fill="#F3F1FC"/>
<path d="M549.41 131.091L549.41 140.774C549.415 142.505 550.655 144.233 553.131 145.561C558.086 148.218 566.121 148.218 571.138 145.545C573.655 144.204 574.956 142.444 574.95 140.686L574.923 131.001C574.951 140.178 549.437 139.85 549.41 131.091V131.091Z" fill="#F3F1FC"/>
<path d="M549.517 154.57L549.539 159.996C549.545 161.726 550.784 163.454 553.26 164.782C558.215 167.439 566.251 167.439 571.267 164.767C573.785 163.426 575.045 161.664 575.04 159.906L575.018 154.48C575.023 156.238 573.763 158 571.245 159.341C566.229 162.014 558.193 162.014 553.238 159.357C550.762 158.029 549.523 156.301 549.517 154.57Z" fill="#F3F1FC"/>
<path d="M407.182 271.898L407.339 315.28L476.369 352.278L520.712 328.701L520.633 285.319L451.524 248.248L430.218 259.638L428.724 260.436L407.182 271.898Z" fill="#F9A83D"/>
<path d="M407.184 271.902L476.23 308.926L476.375 352.311L407.329 315.287L407.184 271.902Z" fill="#F9A83D"/>
<path d="M520.605 285.287L476.231 308.927L407.185 271.902L451.559 248.263L520.605 285.287Z" fill="#FFD06C"/>
<path d="M520.605 285.287L520.75 328.671L476.375 352.311L476.231 308.926L520.605 285.287Z" fill="#FEBC1F"/>
<path d="M423.191 263.372L435.697 256.71L504.743 293.734L492.237 300.397L423.191 263.372Z" fill="#F3F1FC"/>
<path d="M492.237 300.398V314.798L498.49 305.656L504.743 308.046V293.735L492.237 300.398Z" fill="#DEDFFB"/>
<path d="M428.706 260.436L430.183 259.648L499.229 296.673L497.752 297.46L428.706 260.436Z" fill="#E9E7FC"/>
<path d="M486.804 343.027L486.808 344.222L479.141 348.306L479.138 347.111L486.804 343.027Z" fill="#4C5C75"/>
<path d="M480.874 339.064L482.558 340.531L481.404 341.146L481.416 345.166L480.344 345.737L480.332 341.717L479.205 342.317L480.874 339.064Z" fill="#4C5C75"/>
<path d="M485.025 336.854L486.708 338.32L485.581 338.921L485.594 342.941L484.522 343.512L484.51 339.492L483.356 340.106L485.025 336.854Z" fill="#4C5C75"/>
<path d="M492.416 336.069C492.416 335.923 492.363 335.874 492.205 335.923C492.099 336.021 491.994 336.167 491.994 336.313V337.287L488.985 338.894C488.985 337.19 490.199 335.095 491.783 334.072V333.829C491.783 333.585 491.941 333.342 492.152 333.196C492.363 333.098 492.574 333.196 492.574 333.439V333.683C493.26 333.342 493.947 333.39 494.422 333.634C495.003 333.926 495.372 334.559 495.372 335.533L492.416 337.092V336.069V336.069Z" fill="#4C5C75"/>
<path d="M492.416 336.07V337.092L491.994 337.287V336.313C491.994 336.167 492.099 336.021 492.205 335.924C492.363 335.875 492.416 335.924 492.416 336.07V336.07Z" fill="#4C5C75"/>
<path d="M492.469 340.161C492.469 340.745 491.994 341.525 491.413 341.817C490.832 342.109 490.357 341.866 490.357 341.281C490.357 341.135 490.463 340.989 490.569 340.892C490.674 340.843 490.78 340.892 490.78 341.038C490.78 341.379 491.043 341.525 491.413 341.33C491.73 341.184 491.994 340.745 491.994 340.404V336.313C491.994 336.167 492.099 336.021 492.205 335.924C492.363 335.875 492.416 335.924 492.416 336.07V337.092L492.469 340.161Z" fill="#4C5C75"/>
<path d="M553.099 100.999C558.086 98.3415 566.15 98.326 571.134 100.999C576.09 103.656 576.034 107.966 571.047 110.623C566.03 113.296 557.995 113.295 553.039 110.638C548.056 107.966 548.082 103.671 553.099 100.999V100.999Z" fill="#111D33"/>
<path d="M553.099 100.999C548.083 103.671 548.056 107.966 553.04 110.638C557.996 113.295 566.031 113.295 571.048 110.623C576.035 107.966 576.091 103.656 571.135 100.999C566.151 98.3261 558.087 98.3415 553.099 100.999Z" fill="#4C5C75"/>
<path d="M572.872 105.78C572.872 109.154 567.407 110.963 563.548 111.248V100.371C567.336 100.629 572.881 102.388 572.872 105.78Z" fill="#111D33"/>
<path d="M562.126 100.317C562.607 100.317 563.08 100.339 563.549 100.371V111.248C563.044 111.286 562.534 111.311 562.015 111.311C557.922 111.311 551.256 109.59 551.265 105.835C551.275 102.045 557.991 100.317 562.126 100.317V100.317Z" fill="#1D2943"/>
</svg>
