<svg version="1.1" id="Layer_1" xmlns="http://www.w3.org/2000/svg" xmlns:xlink="http://www.w3.org/1999/xlink" x="0px" y="0px"
     width="719.8px" height="451.4px" viewBox="0 0 719.8 451.4" style="enable-background:new 0 0 719.8 451.4;" xml:space="preserve"
>
<path d="M1487.23 996.109C1487.23 1000.85 1485.59 1004.13 1482.85 1005.77L1473.92 1010.87C1474.28 1010.68 1474.65 1010.32 1474.83 1009.96C1473.55 1010.87 1471.91 1011.6 1470.27 1011.6C1469.54 1012.87 1468.81 1013.96 1467.72 1014.51L1458.78 1019.61C1459.15 1019.43 1459.51 1019.07 1459.69 1018.7C1456.96 1021.07 1452.76 1021.43 1448.02 1018.7C1439.63 1013.78 1432.88 1002.12 1432.88 992.647C1432.88 987.728 1434.53 984.449 1437.26 982.809L1446.2 977.708C1447.29 976.979 1448.75 976.979 1450.03 976.796C1450.76 975.703 1451.49 974.61 1452.58 974.064L1461.52 968.78C1464.25 967.323 1468.08 967.504 1472.28 969.873C1480.48 974.792 1487.41 986.453 1487.23 996.109V996.109Z" fill="#1D2943"/>
<path d="M1487.3 996.03C1487.27 1000.78 1485.59 1004.14 1482.89 1005.71L1473.91 1010.91C1476.62 1009.33 1478.3 1006 1478.32 1001.22C1478.35 991.619 1471.57 979.941 1463.25 975.112C1459.04 972.698 1455.23 972.462 1452.48 974.063L1461.45 968.869C1464.21 967.268 1468.02 967.478 1472.22 969.918C1480.55 974.721 1487.33 986.425 1487.3 996.03V996.03Z" fill="#1D2943"/>
<path d="M1463.24 975.124C1471.58 979.932 1478.35 991.628 1478.32 1001.24C1478.29 1010.82 1471.48 1014.68 1463.14 1009.88C1454.79 1005.06 1448.04 993.372 1448.06 983.784C1448.09 974.177 1454.89 970.307 1463.24 975.124Z" fill="#4C5C75"/>
<path d="M1476.88 1000.53C1476.86 1004.98 1475.28 1008.12 1472.75 1009.6L1464.56 1014.34C1467.09 1012.86 1468.67 1009.74 1468.69 1005.27C1468.72 996.273 1462.37 985.336 1454.57 980.814C1450.64 978.553 1447.07 978.332 1444.49 979.831L1452.67 975.093C1455.26 973.594 1458.82 973.79 1462.76 976.076C1470.56 980.573 1476.91 991.534 1476.88 1000.53V1000.53Z" fill="#E3E7F0"/>
<path d="M1472.13 1004.81C1472.11 1009.56 1470.42 1012.92 1467.72 1014.49L1458.74 1019.69C1461.45 1018.11 1463.13 1014.78 1463.16 1010C1463.18 1000.4 1456.4 988.72 1448.08 983.891C1443.87 981.477 1440.06 981.241 1437.31 982.841L1446.28 977.647C1449.04 976.047 1452.85 976.256 1457.05 978.697C1465.38 983.499 1472.16 995.204 1472.13 1004.81V1004.81Z" fill="#1D2943"/>
<path d="M1448.07 983.902C1456.4 988.71 1463.18 1000.41 1463.15 1010.01C1463.12 1019.6 1456.31 1023.46 1447.97 1018.65C1439.62 1013.84 1432.86 1002.15 1432.89 992.562C1432.92 982.954 1439.72 979.084 1448.07 983.902Z" fill="#4C5C75"/>
<path d="M1448.06 987.642C1454.6 991.417 1459.91 1000.6 1459.89 1008.13C1459.87 1015.64 1454.53 1018.68 1447.98 1014.91C1441.44 1011.13 1436.13 1001.95 1436.15 994.441C1436.17 986.908 1441.51 983.868 1448.06 987.642V987.642Z" fill="#F3F1FC"/>
<path d="M1447.25 1008.36C1448.01 1008.81 1448.61 1009.84 1448.61 1010.72C1448.61 1011.6 1448 1011.95 1447.24 1011.51C1446.5 1011.08 1445.9 1010.04 1445.9 1009.16C1445.9 1008.28 1446.51 1007.94 1447.25 1008.36Z" fill="#4C5C75"/>
<path d="M1452.63 996.651C1452.98 996.853 1453.32 997.211 1453.59 997.665C1454.13 998.609 1454.13 999.584 1453.58 999.865C1453.32 1000.03 1452.98 999.989 1452.63 999.79C1452.28 999.59 1451.94 999.232 1451.66 998.759C1451.14 997.863 1451.12 996.873 1451.67 996.56C1451.94 996.406 1452.28 996.455 1452.63 996.651V996.651Z" fill="#4C5C75"/>
<path d="M1441.91 1002.75C1442.26 1002.95 1442.61 1003.31 1442.87 1003.76C1443.42 1004.71 1443.42 1005.68 1442.87 1005.99C1442.61 1006.14 1442.26 1006.09 1441.92 1005.9C1441.57 1005.7 1441.22 1005.35 1440.95 1004.89C1440.43 1003.96 1440.41 1002.97 1440.96 1002.66C1441.23 1002.5 1441.57 1002.55 1441.91 1002.75V1002.75Z" fill="#4C5C75"/>
<path d="M1439.74 995.379C1440.51 995.822 1441.08 996.845 1441.08 997.693C1441.08 998.573 1440.5 998.932 1439.74 998.49C1438.94 998.032 1438.37 997.01 1438.37 996.13C1438.37 995.281 1438.95 994.922 1439.74 995.379V995.379Z" fill="#4C5C75"/>
<path d="M1441.96 990.503C1442.31 990.702 1442.65 991.049 1442.91 991.508C1443.45 992.452 1443.45 993.426 1442.9 993.707C1442.64 993.871 1442.3 993.831 1441.95 993.632C1441.61 993.433 1441.26 993.074 1440.99 992.602C1440.44 991.689 1440.44 990.715 1440.99 990.402C1441.26 990.252 1441.61 990.299 1441.96 990.503V990.503Z" fill="#4C5C75"/>
<path d="M1452.61 1008.91C1452.95 1009.11 1453.29 1009.46 1453.55 1009.92C1454.09 1010.86 1454.09 1011.84 1453.54 1012.15C1453.28 1012.3 1452.94 1012.25 1452.59 1012.05C1452.25 1011.85 1451.9 1011.5 1451.63 1011.05C1451.08 1010.1 1451.08 1009.13 1451.63 1008.81C1451.9 1008.66 1452.25 1008.71 1452.61 1008.91V1008.91Z" fill="#4C5C75"/>
<path d="M1447.28 996.831C1449.52 998.127 1451.32 1001.24 1451.32 1003.82C1451.31 1006.36 1449.5 1007.4 1447.25 1006.1C1445.04 1004.82 1443.24 1001.71 1443.24 999.161C1443.25 996.585 1445.06 995.553 1447.28 996.831Z" fill="#4C5C75"/>
<path d="M1447.3 991.049C1448.06 991.491 1448.66 992.529 1448.66 993.409C1448.66 994.289 1448.05 994.601 1447.29 994.159C1446.55 993.733 1445.95 992.726 1445.95 991.846C1445.95 990.966 1446.56 990.622 1447.3 991.049Z" fill="#4C5C75"/>
<path d="M1454.83 1004.08C1455.59 1004.52 1456.19 1005.56 1456.19 1006.41C1456.19 1007.29 1455.58 1007.63 1454.82 1007.19C1454.05 1006.75 1453.45 1005.71 1453.45 1004.83C1453.46 1003.98 1454.06 1003.64 1454.83 1004.08Z" fill="#4C5C75"/>
<path d="M1462.85 930.05L1462.72 977.305C1462.72 977.731 1462.44 978.155 1461.88 978.478C1460.75 979.138 1458.92 979.133 1457.78 978.478C1457.21 978.147 1456.92 977.714 1456.92 977.282L1457.06 930.026C1457.05 930.459 1457.34 930.892 1457.92 931.222C1459.05 931.878 1460.88 931.882 1462.02 931.222C1462.57 930.9 1462.85 930.476 1462.85 930.05V930.05Z" fill="#B0B8CF"/>
<path d="M973.693 456.172L960.813 448.13C960.813 448.13 877.783 510.399 875.943 512.007L939.193 534.984L943.563 536.133L974.843 460.537L973.693 456.172Z" fill="#497BFE"/>
<path d="M875.942 512.008C877.782 510.399 960.813 448.131 960.813 448.131L973.693 456.173L939.193 534.985L875.942 512.008Z" fill="#2E378B"/>
<path d="M973.693 456.173L974.843 460.539L943.562 536.134L939.192 534.985L973.693 456.173Z" fill="#A3A9E1"/>
<path d="M1465.88 675.721C1462.48 673.736 1457.76 674.023 1452.57 677.022C1442.22 682.975 1433.9 697.44 1433.94 709.303C1433.94 715.212 1436.04 719.358 1439.39 721.32L1362.51 677.186C1359.13 675.223 1357.06 671.078 1357.04 665.169C1357.01 653.306 1365.33 638.841 1375.69 632.887C1380.87 629.888 1385.57 629.602 1389 631.586L1465.88 675.721Z" fill="#F3F1FC"/>
<path d="M1515.32 706.056C1515.32 721.725 1504.19 741.037 1490.51 749.054C1483.4 753.245 1476.83 753.245 1472.28 750.329C1471.73 749.965 1471 749.418 1470.45 748.871C1470.82 749.236 1471.18 749.601 1471.55 749.965L1423.03 721.907C1418.48 719.175 1415.74 713.708 1415.74 705.874C1415.74 690.023 1426.68 670.711 1440.54 662.877C1447.47 658.869 1453.67 658.504 1458.23 661.055L1508.02 690.023C1512.58 692.574 1515.32 698.04 1515.32 706.056V706.056Z" fill="#111D33"/>
<path d="M1508.04 689.995C1503.51 687.35 1497.21 687.732 1490.3 691.729C1476.5 699.664 1465.41 718.942 1465.47 734.753C1465.47 742.629 1468.27 748.154 1472.74 750.77L1422.99 721.881C1418.49 719.266 1415.73 713.741 1415.7 705.865C1415.67 690.054 1426.76 670.775 1440.56 662.84C1447.47 658.843 1453.73 658.461 1458.29 661.106L1508.04 689.995Z" fill="#4C5C75"/>
<path d="M1490.3 691.716C1504.07 683.776 1515.28 690.18 1515.33 705.984C1515.37 721.81 1504.23 741.084 1490.47 749.024C1476.68 756.976 1465.5 750.571 1465.46 734.746C1465.42 718.942 1476.52 699.668 1490.3 691.716V691.716Z" fill="#1D2943"/>
<path d="M1512.32 705.877C1512.48 720.939 1502.05 738.977 1489.13 746.425C1485.48 748.577 1482.17 749.57 1479.35 749.57C1476.7 749.57 1474.38 748.742 1472.73 746.922C1472.56 746.922 1472.56 746.922 1472.39 746.591C1472.39 746.591 1472.39 746.591 1472.23 746.591C1471.4 745.763 1470.74 744.771 1470.24 743.446C1469.08 741.129 1468.42 738.15 1468.42 734.675C1468.42 719.946 1478.69 701.74 1491.78 694.128C1494.92 692.472 1498.07 691.479 1500.72 691.314H1501.39C1501.88 691.314 1502.38 691.314 1502.88 691.479C1503.21 691.314 1503.54 691.479 1503.87 691.479C1509.17 692.803 1512.32 697.934 1512.32 705.877V705.877Z" fill="#4C5C75"/>
<path d="M1502.38 699.754C1502.55 714.815 1491.94 732.854 1479.02 740.302C1475.87 742.288 1472.89 743.281 1470.24 743.446C1469.08 741.129 1468.42 738.15 1468.42 734.675C1468.42 719.946 1478.69 701.74 1491.78 694.128C1494.92 692.472 1498.07 691.479 1500.72 691.314C1501.88 693.631 1502.38 696.445 1502.38 699.754V699.754Z" fill="#111D33"/>
<path d="M1491.84 709.441C1490.8 708.701 1489.17 708.849 1487.39 709.886C1483.83 711.812 1481.01 716.699 1481.01 720.699C1481.01 722.625 1481.76 724.105 1482.94 724.698L1478.85 722.48C1477.81 721.74 1477.07 720.406 1477.07 718.332C1477.07 714.482 1479.88 709.593 1483.44 707.519C1485.22 706.483 1486.7 706.483 1487.89 707.076L1491.84 709.441Z" fill="#C9CEE2"/>
<path d="M1487.37 709.828C1490.87 707.808 1493.72 709.43 1493.74 713.342C1493.75 717.363 1490.92 722.261 1487.41 724.281C1483.91 726.301 1481.06 724.679 1481.05 720.658C1481.04 716.746 1483.87 711.848 1487.37 709.828V709.828Z" fill="#F3F1FC"/>
<path d="M1499.81 577.509C1496.41 575.524 1491.69 575.811 1486.5 578.81C1476.15 584.763 1467.83 599.228 1467.87 611.091C1467.87 617 1469.97 621.146 1473.32 623.108L1396.44 578.974C1393.06 577.011 1390.99 572.866 1390.97 566.957C1390.94 555.094 1399.26 540.629 1409.62 534.675C1414.8 531.676 1419.5 531.39 1422.93 533.374L1499.81 577.509Z" fill="#F3F1FC"/>
<path d="M1549.24 607.855C1549.24 623.525 1538.11 642.837 1524.43 650.854C1517.32 655.044 1510.76 655.044 1506.2 652.128C1505.65 651.764 1504.92 651.217 1504.37 650.671C1504.74 651.035 1505.1 651.4 1505.47 651.764L1456.96 623.706C1452.4 620.974 1449.66 615.508 1449.66 607.673C1449.66 591.822 1460.6 572.51 1474.46 564.675C1481.39 560.668 1487.6 560.303 1492.16 562.854L1541.94 591.641V591.822C1546.5 594.373 1549.24 599.839 1549.24 607.855V607.855Z" fill="#111D33"/>
<path d="M1541.97 591.783C1537.44 589.138 1531.14 589.52 1524.23 593.517C1510.43 601.452 1499.34 620.73 1499.4 636.541C1499.4 644.417 1502.2 649.942 1506.67 652.558L1456.92 623.669C1452.42 621.054 1449.66 615.529 1449.63 607.653C1449.6 591.842 1460.69 572.563 1474.48 564.628C1481.4 560.631 1487.66 560.249 1492.22 562.894L1541.97 591.783Z" fill="#4C5C75"/>
<path d="M1524.23 593.504C1538 585.563 1549.21 591.967 1549.26 607.771C1549.3 623.597 1538.16 642.871 1524.4 650.812C1510.61 658.763 1499.44 652.359 1499.39 636.533C1499.35 620.729 1510.45 601.455 1524.23 593.504Z" fill="#1D2943"/>
<path d="M1546.25 607.665C1546.42 622.726 1535.98 640.765 1523.06 648.212C1519.41 650.364 1516.1 651.357 1513.28 651.357C1510.63 651.357 1508.31 650.529 1506.66 648.709C1506.49 648.709 1506.49 648.709 1506.33 648.378C1506.33 648.378 1506.33 648.378 1506.16 648.378C1505.33 647.551 1504.67 646.558 1504.17 645.233C1503.01 642.916 1502.35 639.937 1502.35 636.462C1502.35 621.733 1512.62 603.527 1525.71 595.915C1528.86 594.259 1532 593.266 1534.65 593.102H1535.32C1535.81 593.102 1536.31 593.102 1536.81 593.266C1537.14 593.102 1537.47 593.266 1537.8 593.266C1543.1 594.591 1546.25 599.721 1546.25 607.665V607.665Z" fill="#4C5C75"/>
<path d="M1536.31 601.541C1536.48 616.602 1525.87 634.641 1512.95 642.089C1509.8 644.075 1506.82 645.068 1504.17 645.233C1503.01 642.916 1502.35 639.937 1502.35 636.462C1502.35 621.733 1512.62 603.527 1525.71 595.915C1528.86 594.259 1532 593.266 1534.65 593.102C1535.81 595.418 1536.31 598.232 1536.31 601.541V601.541Z" fill="#111D33"/>
<path d="M1527.72 615.145C1527.72 619.153 1524.8 624.072 1521.33 626.076C1519.51 627.169 1517.87 627.169 1516.77 626.441L1512.76 624.255C1511.67 623.526 1510.94 622.251 1510.94 620.065C1510.94 616.238 1513.86 611.319 1517.32 609.315C1519.15 608.222 1520.6 608.222 1521.88 608.95L1525.16 610.955L1525.71 611.319C1525.68 611.292 1525.63 611.303 1525.6 611.279C1526.8 611.828 1527.72 613.061 1527.72 615.145V615.145Z" fill="#F3F1FC"/>
<path d="M1525.77 611.229C1524.73 610.489 1523.1 610.637 1521.32 611.674C1517.76 613.6 1514.95 618.487 1514.95 622.487C1514.95 624.413 1515.69 625.893 1516.87 626.487L1512.78 624.268C1511.74 623.528 1511 622.194 1511 620.12C1511 616.27 1513.82 611.382 1517.37 609.308C1519.15 608.271 1520.64 608.271 1521.82 608.864L1525.77 611.229Z" fill="#C9CEE2"/>
<path d="M1521.3 611.616C1524.81 609.596 1527.66 611.218 1527.67 615.13C1527.68 619.151 1524.85 624.049 1521.34 626.069C1517.84 628.089 1514.99 626.467 1514.98 622.446C1514.97 618.534 1517.8 613.636 1521.3 611.616V611.616Z" fill="#F3F1FC"/>
<path d="M1423.04 750.902L1422.99 766.352L1276.54 723.595L1276.58 708.145L1423.04 750.902Z" fill="#BFC8D0"/>
<path d="M1499.44 522.183C1499.44 523.657 1499.15 525.13 1498.68 526.604C1500.9 519.414 1497.73 511.989 1489.88 506.264L1437.99 468.396L1276.58 708.145L1423.04 750.903L1423.03 750.907L1422.99 766.349L1499.4 539.669C1499.95 538.06 1500.22 536.452 1500.22 534.843L1499.44 522.183Z" fill="#497BFE"/>
<path d="M1499.44 522.182L1500.22 534.842C1500.22 536.451 1499.95 538.059 1499.4 539.668L1422.99 766.347L1423.03 750.906L1498.61 527.007C1499.17 525.399 1499.44 523.79 1499.44 522.182Z" fill="#A3A9E1"/>
<path d="M1437.99 468.396L1489.88 506.264C1497.88 512.098 1501.09 519.696 1498.63 527.014L1423.04 750.902L1276.58 708.145L1437.99 468.396Z" fill="#2E378B"/>
<path d="M1546.83 967.569C1494.81 967.901 1442.96 957.308 1395.25 936.787C1392.07 935.425 1115.64 777.359 1073.03 750.931C972.806 688.868 877.053 615.882 808.8 520.058C803.663 513.108 799.191 504.336 797.037 495.895V495.729C794.884 485.965 796.043 476.532 803.829 470.574C811.947 464.285 823.377 465.774 833.484 467.926C863.799 474.38 893.454 483.814 922.445 494.571C1073.2 549.682 1210.7 634.418 1350.85 712.203C1397.07 737.856 1443.79 762.846 1485.37 795.284C1520.49 822.757 1552.13 855.857 1572.84 895.08V895.246C1576.65 902.362 1580.13 909.644 1583.11 917.092C1596.24 949.216 1584.71 967.569 1546.83 967.569V967.569Z" fill="#DEDFFB"/>
<path d="M1536.56 945.557C1484.54 945.889 1432.52 935.296 1384.98 914.775C1363.32 905.502 1342 891.647 1317.55 876.544C1231.91 824.97 1144.06 779.446 1062.6 728.919C962.535 666.856 866.782 593.871 798.528 498.047C798.031 497.385 797.534 496.558 797.037 495.895V495.729C794.884 485.965 796.043 476.532 803.829 470.574C811.947 464.285 823.377 465.774 833.484 467.926C863.799 474.38 893.454 483.814 922.445 494.571C1073.2 549.682 1210.7 634.418 1350.85 712.203C1397.07 737.855 1443.79 762.846 1485.37 795.284C1520.49 822.757 1552.13 855.857 1572.84 895.08V895.246C1586.28 929.299 1572.58 945.557 1536.56 945.557V945.557Z" fill="#F3F1FC"/>
<path d="M1553.79 864.465C1547.49 868.934 1538.21 874.892 1530.1 878.698L1518.83 851.39C1518.83 851.39 1526.12 848.411 1533.74 839.972C1540.86 847.75 1547.49 856.025 1553.79 864.465Z" fill="#2E378B"/>
<path d="M1460.99 861.333C1480.62 864.162 1498.53 862.508 1513.82 854.072L1525.52 880.121C1506.62 890.818 1486.28 893.509 1464.85 890.175L1460.99 861.333Z" fill="#2E378B"/>
<path d="M1177.01 759.241C1178.79 760.267 1180.21 762.729 1180.2 764.747L1180.16 781.439C1180.15 783.458 1178.72 784.273 1176.94 783.247L1167.55 777.83C1165.79 776.816 1164.35 774.343 1164.35 772.325L1164.4 755.633C1164.41 753.614 1165.86 752.811 1167.62 753.825L1177.01 759.241Z" fill="#2E378B"/>
<path d="M1202.86 774.155C1204.64 775.181 1206.06 777.642 1206.06 779.66L1206.01 796.352C1206.01 798.371 1204.57 799.186 1202.8 798.16L1193.4 792.743C1191.65 791.729 1190.2 789.256 1190.21 787.238L1190.26 770.546C1190.26 768.527 1191.71 767.724 1193.47 768.738L1202.86 774.155Z" fill="#2E378B"/>
<path d="M1125.3 730.133C1127.08 731.159 1128.5 733.621 1128.49 735.639L1128.45 752.331C1128.44 754.349 1127.01 755.164 1125.23 754.138L1115.84 748.722C1114.08 747.708 1112.64 745.235 1112.64 743.216L1112.69 726.524C1112.7 724.506 1114.15 723.703 1115.91 724.717L1125.3 730.133Z" fill="#423D9B"/>
<path d="M1099.44 715.46C1101.22 716.486 1102.64 718.948 1102.64 720.966L1102.59 737.658C1102.59 739.676 1101.15 740.491 1099.38 739.465L1089.98 734.049C1088.23 733.035 1086.78 730.562 1086.79 728.543L1086.84 711.851C1086.84 709.833 1088.29 709.03 1090.05 710.044L1099.44 715.46Z" fill="#423D9B"/>
<path d="M1228.72 789.068C1230.5 790.094 1231.92 792.555 1231.91 794.573L1231.87 811.265C1231.86 813.284 1230.43 814.099 1228.65 813.073L1219.26 807.657C1217.5 806.642 1216.06 804.169 1216.06 802.151L1216.11 785.459C1216.12 783.441 1217.57 782.637 1219.33 783.651L1228.72 789.068Z" fill="#2E378B"/>
<path d="M1254.57 803.979C1256.35 805.005 1257.77 807.467 1257.77 809.485L1257.72 826.177C1257.72 828.195 1256.28 829.01 1254.51 827.984L1245.11 822.568C1243.36 821.554 1241.91 819.081 1241.92 817.062L1241.97 800.37C1241.97 798.352 1243.42 797.549 1245.18 798.563L1254.57 803.979Z" fill="#2E378B"/>
<path d="M1280.43 818.892C1282.21 819.918 1283.63 822.38 1283.63 824.398L1283.58 841.09C1283.57 843.108 1282.14 843.924 1280.36 842.898L1270.97 837.481C1269.21 836.467 1267.77 833.994 1267.78 831.976L1267.82 815.283C1267.83 813.265 1269.28 812.462 1271.04 813.476L1280.43 818.892Z" fill="#2E378B"/>
<path d="M1306.28 833.805C1308.06 834.831 1309.49 837.293 1309.48 839.311L1309.43 856.003C1309.43 858.021 1307.99 858.837 1306.22 857.811L1296.83 852.394C1295.07 851.38 1293.62 848.907 1293.63 846.889L1293.68 830.197C1293.68 828.178 1295.14 827.375 1296.89 828.389L1306.28 833.805Z" fill="#2E378B"/>
<path d="M1332.14 848.718C1333.92 849.743 1335.34 852.205 1335.33 854.223L1335.29 870.915C1335.28 872.934 1333.85 873.749 1332.07 872.723L1322.68 867.306C1320.92 866.292 1319.48 863.819 1319.48 861.801L1319.53 845.109C1319.54 843.09 1320.99 842.287 1322.75 843.301L1332.14 848.718Z" fill="#2E378B"/>
<path d="M1357.99 863.631C1359.77 864.657 1361.2 867.118 1361.19 869.136L1361.14 885.828C1361.14 887.847 1359.7 888.662 1357.93 887.636L1348.54 882.22C1346.78 881.205 1345.33 878.732 1345.34 876.714L1345.39 860.022C1345.39 858.004 1346.85 857.2 1348.6 858.214L1357.99 863.631Z" fill="#2E378B"/>
<path d="M926.797 535.16L920.413 539.169L844.729 497.993V372.462L849.652 369L871.719 379.568L926.797 535.16Z" fill="#497BFE"/>
<path d="M844.662 498.041V372.432L866.129 382.235L920.409 539.094L844.662 498.041Z" fill="#2E378B"/>
<path d="M871.649 379.479L849.673 369.02L844.662 372.433L866.129 382.236L871.649 379.479V379.479Z" fill="#A3A9E1"/>
<path d="M926.848 535.112L871.648 379.479L866.128 382.235L920.408 539.094L926.848 535.112Z" fill="#A3A9E1"/>
<path d="M830.198 535.092L713.506 574.124L713 579.922L720.104 586.692L875.576 575.951L876.335 567.253L830.198 535.092Z" fill="#497BFE"/>
<path d="M830.198 535.094L713.506 574.125L721.447 581.891L876.334 567.255L830.198 535.094Z" fill="#2E378B"/>
<path d="M713.507 574.125L713 579.924L720.104 586.694L721.447 581.89L713.507 574.125Z" fill="#A3A9E1"/>
<path d="M876.336 567.255L721.449 581.891L720.105 586.694L875.576 575.953L876.336 567.255Z" fill="#A3A9E1"/>
<path d="M1188.29 893.38C1184.89 891.396 1180.17 891.682 1174.98 894.681C1164.63 900.635 1156.31 915.1 1156.35 926.963C1156.35 932.872 1158.45 937.017 1161.8 938.98L1084.92 894.846C1081.54 892.883 1079.47 888.738 1079.45 882.828C1079.42 870.965 1087.74 856.5 1098.1 850.547C1103.28 847.548 1107.98 847.261 1111.41 849.246L1188.29 893.38Z" fill="#F3F1FC"/>
<path d="M1237.74 923.596C1237.74 939.447 1226.62 958.76 1212.94 966.594C1205.83 970.785 1199.26 970.966 1194.7 968.052C1194.89 968.234 1194.89 968.234 1195.07 968.416L1145.46 939.63C1140.9 936.896 1138.17 931.431 1138.17 923.596C1138.17 907.746 1149.11 888.433 1162.97 880.417C1169.9 876.59 1176.1 876.044 1180.66 878.777L1230.27 907.563H1230.45C1234.83 910.297 1237.74 915.762 1237.74 923.596V923.596Z" fill="#111D33"/>
<path d="M1230.45 907.653C1225.92 905.008 1219.62 905.39 1212.71 909.386C1198.91 917.321 1187.82 936.6 1187.88 952.411C1187.88 960.287 1190.68 965.812 1195.15 968.428L1145.4 939.539C1140.9 936.923 1138.14 931.398 1138.11 923.522C1138.08 907.711 1149.17 888.433 1162.96 880.498C1169.88 876.501 1176.14 876.119 1180.7 878.764L1230.45 907.653Z" fill="#4C5C75"/>
<path d="M1212.71 909.375C1226.48 901.434 1237.69 907.838 1237.74 923.642C1237.78 939.468 1226.64 958.742 1212.88 966.683C1199.09 974.634 1187.92 968.23 1187.87 952.404C1187.83 936.6 1198.93 917.326 1212.71 909.375V909.375Z" fill="#1D2943"/>
<path d="M1234.73 923.535C1234.9 938.596 1224.46 956.635 1211.54 964.082C1207.89 966.234 1204.58 967.227 1201.76 967.227C1199.11 967.227 1196.79 966.4 1195.14 964.579C1194.97 964.579 1194.97 964.579 1194.81 964.248C1194.81 964.248 1194.81 964.248 1194.64 964.248C1193.81 963.421 1193.15 962.428 1192.65 961.104C1191.49 958.786 1190.83 955.807 1190.83 952.333C1190.83 937.603 1201.1 919.397 1214.19 911.785C1217.34 910.129 1220.48 909.136 1223.13 908.972H1223.8C1224.29 908.972 1224.79 908.972 1225.29 909.136C1225.62 908.972 1225.95 909.136 1226.28 909.136C1231.58 910.461 1234.73 915.591 1234.73 923.535V923.535Z" fill="#4C5C75"/>
<path d="M1224.79 917.411C1224.96 932.472 1214.35 950.511 1201.43 957.959C1198.29 959.945 1195.3 960.938 1192.65 961.104C1191.49 958.786 1190.83 955.807 1190.83 952.333C1190.83 937.603 1201.1 919.397 1214.19 911.785C1217.34 910.129 1220.48 909.136 1223.13 908.972C1224.29 911.288 1224.79 914.102 1224.79 917.411Z" fill="#111D33"/>
<path d="M1043.87 915.064C1040.47 913.079 1035.75 913.366 1030.56 916.365C1020.21 922.318 1011.89 936.783 1011.93 948.646C1011.93 954.556 1014.03 958.701 1017.38 960.664L928.497 910.354C925.12 908.392 923.046 904.246 923.023 898.337C923.002 886.474 943.322 878.184 953.674 872.231C958.861 869.232 963.562 868.945 966.984 870.929L1043.87 915.064Z" fill="#F3F1FC"/>
<path d="M1093.3 945.278C1093.3 961.128 1082.18 980.441 1068.5 988.457C1061.39 992.466 1055 992.647 1050.45 989.915C1050.26 989.733 1050.26 989.733 1050.26 989.733L1001.02 961.311C996.464 958.577 993.728 953.112 993.728 945.278C993.728 929.427 1004.67 910.114 1018.53 902.098C1025.46 898.271 1031.66 897.725 1036.22 900.458L1086.01 929.245C1090.57 931.978 1093.3 937.443 1093.3 945.278V945.278Z" fill="#111D33"/>
<path d="M1086.02 929.338C1081.49 926.693 1075.2 927.075 1068.29 931.072C1054.49 939.006 1043.4 958.285 1043.46 974.096C1043.46 981.972 1046.25 987.497 1050.72 990.113L1000.98 961.224C996.478 958.608 993.713 953.083 993.684 945.207C993.654 929.396 1004.74 910.118 1018.54 902.183C1025.45 898.186 1031.72 897.804 1036.28 900.449L1086.02 929.338Z" fill="#4C5C75"/>
<path d="M1068.29 931.059C1082.06 923.118 1093.27 929.523 1093.31 945.326C1093.36 961.152 1082.22 980.426 1068.45 988.367C1054.67 996.318 1043.49 989.914 1043.45 974.088C1043.4 958.284 1054.5 939.01 1068.29 931.059V931.059Z" fill="#1D2943"/>
<path d="M1090.31 945.219C1090.47 960.28 1080.04 978.319 1067.11 985.766C1063.47 987.918 1060.16 988.911 1057.34 988.911C1054.69 988.911 1052.37 988.084 1050.71 986.263C1050.55 986.263 1050.55 986.263 1050.38 985.932C1050.38 985.932 1050.38 985.932 1050.22 985.932C1049.39 985.105 1048.73 984.112 1048.23 982.788C1047.07 980.47 1046.41 977.491 1046.41 974.017C1046.41 959.287 1056.68 941.081 1069.76 933.469C1072.91 931.813 1076.06 930.82 1078.71 930.656H1079.37C1079.87 930.656 1080.37 930.656 1080.86 930.82C1081.2 930.656 1081.53 930.82 1081.86 930.82C1087.16 932.145 1090.31 937.275 1090.31 945.219V945.219Z" fill="#4C5C75"/>
<path d="M1080.37 939.095C1080.53 954.156 1069.93 972.195 1057.01 979.643C1053.86 981.629 1050.88 982.622 1048.23 982.788C1047.07 980.47 1046.41 977.491 1046.41 974.017C1046.41 959.287 1056.68 941.081 1069.76 933.469C1072.91 931.813 1076.06 930.82 1078.71 930.656C1079.87 932.972 1080.37 935.786 1080.37 939.095Z" fill="#111D33"/>
<path d="M1071.78 952.749C1071.78 956.757 1068.87 961.677 1065.4 963.681C1063.58 964.774 1061.75 964.774 1060.66 963.863L1056.83 961.858C1055.74 961.13 1055 959.672 1055 957.668C1055 953.842 1057.92 948.923 1061.39 946.919C1063.21 945.826 1064.67 945.826 1065.95 946.372L1069.41 948.558C1066.22 946.967 1068.38 947.941 1069.41 948.558C1069.59 948.558 1069.59 948.558 1069.78 948.741C1071.05 949.287 1071.78 950.745 1071.78 952.749V952.749Z" fill="#C9CEE2"/>
<path d="M1069.83 948.783C1068.79 948.043 1067.16 948.191 1065.38 949.228C1061.82 951.154 1059 956.041 1059 960.041C1059 961.966 1059.74 963.447 1060.93 964.04L1056.83 961.822C1055.8 961.081 1055.05 959.748 1055.05 957.674C1055.05 953.824 1057.87 948.935 1061.43 946.861C1063.21 945.824 1064.69 945.824 1065.88 946.417L1069.83 948.783Z" fill="#C9CEE2"/>
<path d="M1065.36 949.17C1068.86 947.15 1071.71 948.773 1071.72 952.684C1071.73 956.705 1068.9 961.604 1065.4 963.624C1061.9 965.644 1059.05 964.022 1059.04 960.001C1059.03 956.089 1061.86 951.191 1065.36 949.17Z" fill="#F3F1FC"/>
<path d="M906.371 905.011C905.641 904.83 904.73 904.83 904 904.648C902.359 904.283 900.718 903.918 899.076 903.555C898.347 903.372 897.617 903.008 896.705 902.825C899.805 903.736 903.089 904.465 906.371 905.011V905.011Z" fill="#497BFE"/>
<path d="M1286.44 864.019L1164.61 793.146L825.03 870.579L824.848 885.882L890.503 915.945C900.716 920.499 913.846 922.321 926.43 920.863L1308.69 876.955L1286.44 864.019ZM903.998 904.649C902.356 904.284 900.716 903.919 899.074 903.556C898.345 903.373 897.615 903.008 896.703 902.826C899.803 903.737 903.087 904.466 906.369 905.012C905.639 904.831 904.727 904.831 903.998 904.649V904.649Z" fill="#497BFE"/>
<path d="M906.37 905.012C905.64 904.831 904.729 904.831 903.999 904.648C902.358 904.284 900.717 903.919 899.075 903.555C898.346 903.373 897.616 903.008 896.704 902.826C899.804 903.736 903.088 904.466 906.37 905.012V905.012Z" fill="#57B3FE"/>
<path d="M1308.65 876.913L926.376 920.893C913.772 922.318 900.662 920.526 890.495 915.884L824.896 885.966L824.943 870.525L890.541 900.443C892.519 901.316 894.589 902.097 896.751 902.786C899.834 903.751 903.099 904.533 906.458 905.038C910.184 905.636 914.048 905.911 917.912 905.911C920.718 905.911 923.616 905.728 926.422 905.406L1286.48 864.045L1308.65 876.913Z" fill="#A3A9E1"/>
<path d="M1286.48 864.044L926.423 905.451C923.617 905.772 920.765 905.91 917.913 905.91C914.049 905.91 910.185 905.635 906.459 905.037C905.63 904.899 904.802 904.762 903.974 904.623C902.318 904.302 900.662 903.888 899.098 903.475C898.316 903.291 897.534 903.061 896.752 902.785C894.59 902.142 892.52 901.315 890.542 900.442L824.943 870.524L1164.53 793.226L1286.48 864.044Z" fill="#2E378B"/>
<path d="M1215.86 933.072C1215.86 937.079 1212.94 941.999 1209.48 944.003C1207.83 944.913 1206.19 945.096 1205.1 944.55L1200.9 942.181C1199.81 941.452 1199.08 940.176 1199.08 938.172C1199.08 934.165 1202 929.427 1205.46 927.241C1207.29 926.33 1208.75 926.33 1210.02 926.876L1213.3 928.88L1213.85 929.245C1213.83 929.23 1213.8 929.242 1213.78 929.227C1214.95 929.788 1215.86 931.009 1215.86 933.072Z" fill="#C9CEE2"/>
<path d="M1213.91 929.202C1212.87 928.461 1211.24 928.609 1209.46 929.646C1205.9 931.572 1203.09 936.459 1203.09 940.459C1203.09 942.385 1203.83 943.866 1205.01 944.459L1200.92 942.24C1199.88 941.5 1199.14 940.166 1199.14 938.092C1199.14 934.242 1201.96 929.354 1205.52 927.28C1207.29 926.243 1208.78 926.243 1209.96 926.836L1213.91 929.202Z" fill="#C9CEE2"/>
<path d="M1209.44 929.587C1212.95 927.567 1215.8 929.189 1215.81 933.101C1215.82 937.122 1212.99 942.02 1209.49 944.04C1205.98 946.061 1203.13 944.438 1203.12 940.417C1203.11 936.506 1205.94 931.607 1209.44 929.587Z" fill="#F3F1FC"/>
<path d="M1401.06 658.604L1334.95 696.686L1277.24 663.098L1277 593.201L1300.89 579.363L1309.05 574.633L1311.3 573.45L1319.46 568.72L1343.11 555L1400.83 588.589L1401.06 658.604Z" fill="#F9A83D"/>
<path d="M1277.04 593.172L1334.79 626.734L1335.01 696.72L1277.26 663.158L1277.04 593.172Z" fill="#F9A83D"/>
<path d="M1400.84 588.6L1334.79 626.734L1277.04 593.172L1343.09 555.038L1400.84 588.6Z" fill="#FFD06C"/>
<path d="M1400.84 588.6L1401.06 658.586L1335.01 696.72L1334.79 626.734L1400.84 588.6Z" fill="#FEBC1F"/>
<path d="M1300.87 579.414L1319.48 568.667L1377.23 602.229L1358.62 612.976L1300.87 579.414Z" fill="#F3F1FC"/>
<path d="M1358.62 612.976V636.205L1367.93 621.458L1377.23 625.314V602.229L1358.62 612.976Z" fill="#DEDFFB"/>
<path d="M1309.07 574.675L1311.27 573.405L1369.03 606.967L1366.83 608.237L1309.07 574.675Z" fill="#E9E7FC"/>
<path d="M1350.53 681.742L1350.54 683.669L1339.13 690.257L1339.12 688.33L1350.53 681.742Z" fill="#4C5C75"/>
<path d="M1341.71 675.353L1344.21 677.719L1342.49 678.711L1342.51 685.196L1340.92 686.117L1340.9 679.632L1339.22 680.6L1341.71 675.353Z" fill="#4C5C75"/>
<path d="M1347.88 671.786L1350.39 674.153L1348.71 675.121L1348.73 681.606L1347.13 682.527L1347.12 676.042L1345.4 677.033L1347.88 671.786Z" fill="#4C5C75"/>
<path d="M1358.88 670.519C1358.88 670.283 1358.81 670.205 1358.57 670.283C1358.41 670.441 1358.26 670.676 1358.26 670.912V672.483L1353.78 675.076C1353.78 672.326 1355.58 668.948 1357.94 667.298V666.905C1357.94 666.512 1358.18 666.119 1358.49 665.884C1358.81 665.726 1359.12 665.884 1359.12 666.276V666.669C1360.14 666.119 1361.16 666.198 1361.87 666.59C1362.73 667.062 1363.28 668.083 1363.28 669.655L1358.88 672.169V670.519V670.519Z" fill="#4C5C75"/>
<path d="M1358.88 670.52V672.17L1358.26 672.484V670.913C1358.26 670.677 1358.41 670.442 1358.57 670.284C1358.81 670.206 1358.88 670.284 1358.88 670.52Z" fill="#4C5C75"/>
<path d="M1358.96 677.12C1358.96 678.063 1358.26 679.32 1357.39 679.792C1356.53 680.263 1355.82 679.87 1355.82 678.927C1355.82 678.691 1355.98 678.456 1356.13 678.299C1356.29 678.22 1356.45 678.299 1356.45 678.534C1356.45 679.084 1356.84 679.32 1357.39 679.006C1357.86 678.77 1358.26 678.063 1358.26 677.513V670.913C1358.26 670.677 1358.41 670.442 1358.57 670.284C1358.81 670.206 1358.88 670.284 1358.88 670.52V672.17L1358.96 677.12Z" fill="#4C5C75"/>
<path d="M1011.28 753.696L1009.62 755.027L1002.29 760.201L1011.28 753.696Z" fill="#BF7D5A"/>
<path d="M1140.43 883.941L1081.41 926.518L981.238 853.782L981.001 775.577L1002.29 760.201L1009.62 755.028L1011.28 753.697L1011.51 753.549L1018.85 748.227L1040.02 733L1140.19 805.883L1140.43 883.941Z" fill="#BF7D5A"/>
<path d="M981 775.63L1081.24 848.449L1081.44 926.579L981.192 853.759L981 775.63Z" fill="#BF7D5A"/>
<path d="M1140.23 805.877L1081.24 848.448L981 775.629L1039.99 733.058L1140.23 805.877Z" fill="#DBA660"/>
<path d="M1140.23 805.877L1140.42 884.007L1081.44 926.578L1081.24 848.449L1140.23 805.877Z" fill="#AA6256"/>
<path d="M1002.28 760.27L1018.9 748.272L1119.15 821.092L1102.52 833.09L1002.28 760.27Z" fill="#F3F1FC"/>
<path d="M1102.52 833.09V859.022L1110.83 842.559L1119.15 846.863V821.092L1102.52 833.09Z" fill="#DEDFFB"/>
<path d="M1110.54 899.471L1085.83 917.302L1085.8 897.507L1110.49 879.676L1110.54 899.471Z" fill="#4C5C75"/>
<path d="M1090.28 896.752L1090.31 911.581L1088.54 912.862L1088.5 898.033L1090.28 896.752Z" fill="white"/>
<path d="M1093.58 894.371L1093.61 909.199L1092.36 910.103L1092.33 895.275L1093.58 894.371Z" fill="white"/>
<path d="M1107.79 884.115L1107.82 898.943L1106.57 899.847L1106.54 885.019L1107.79 884.115Z" fill="white"/>
<path d="M1100.68 889.248L1100.71 904.076L1099.46 904.98L1099.43 890.152L1100.68 889.248Z" fill="white"/>
<path d="M1104.5 886.487L1104.53 901.315L1102.76 902.596L1102.72 887.768L1104.5 886.487Z" fill="white"/>
<path d="M1097.39 891.62L1097.42 906.448L1095.65 907.729L1095.61 892.901L1097.39 891.62Z" fill="white"/>
<path d="M1009.61 754.979L1011.57 753.562L1111.82 826.381L1109.85 827.799L1009.61 754.979Z" fill="#E9E7FC"/>
<path d="M794.513 300.389C742.618 386.037 653.747 454.837 564.088 504.661C531.001 523.047 495.58 540.129 458.204 555.697C436.845 564.593 414.848 572.996 392.282 580.864C285.773 618.007 165.768 643.551 39.7455 652.761C26.553 653.725 13.3015 654.511 0 655.112C41.3615 683.615 114.124 705.351 108.559 791.008C321.383 781.394 413.318 753.912 564.575 669.859C667.993 612.391 748.592 542.18 795 465.588L794.513 300.389Z" fill="#F17572"/>
<path d="M794.957 450.399C748.574 526.976 667.961 597.182 564.577 654.621C413.337 738.637 321.413 766.17 108.69 775.781C108.96 780.616 108.9 785.682 108.569 791.01C321.383 781.398 413.306 753.924 564.577 669.85C667.991 612.381 748.605 542.175 794.987 465.599L794.957 450.399Z" fill="#CB4844"/>
<path d="M22.812 653.896C15.232 654.36 7.62186 654.766 0.0117188 655.112C38.5739 681.69 104.418 702.361 108.629 774.449C112.57 704.041 63.1791 677.261 22.812 653.896Z" fill="#CB4844"/>
<path d="M108.569 775.781H108.69C108.69 775.317 108.69 774.883 108.629 774.449C108.63 774.883 108.599 775.317 108.569 775.781Z" fill="#F17572"/>
<path d="M794.957 450.398L794.505 300.374C742.873 385.84 653.548 454.975 564.095 504.653C531.007 523.037 495.574 540.118 458.215 555.694C436.858 564.583 414.84 573.006 392.28 580.852C285.724 618.036 167.358 643.21 39.7463 652.768C34.0914 653.172 28.4665 653.548 22.8115 653.896C63.1786 677.26 112.569 704.04 108.629 774.448C108.689 774.882 108.689 775.316 108.689 775.78C321.413 766.169 413.336 738.635 564.577 654.619C667.96 597.181 748.574 526.974 794.957 450.398V450.398Z" fill="#EE5550"/>
<path d="M392.282 580.864C414.848 572.996 436.846 564.593 458.204 555.697C495.581 540.129 531.001 523.047 564.088 504.661C653.722 454.851 742.609 386.052 794.514 300.389L638.859 213.326C638.322 213.427 637.793 213.54 637.256 213.64V222.475L782.074 303.476C730.38 384.334 645.117 449.604 559.577 497.139C407.427 581.687 215.423 634.107 17.1273 645.507C14.9992 645.629 12.8744 645.775 10.7448 645.888C31.8681 537.515 125.667 432.341 276.242 348.667C379.757 291.145 504.52 247.54 637.257 222.475V213.64C500.36 239.311 374.753 283.896 271.729 341.145C120.489 425.188 17.9503 536.493 0 655.112C13.3015 654.511 26.553 653.725 39.7455 652.761C165.776 643.551 285.78 618.004 392.282 580.864V580.864Z" fill="#485F69"/>
<path d="M458.203 555.696C436.845 564.592 414.848 572.995 392.282 580.863C414.848 572.995 436.845 564.592 458.203 555.696Z" fill="#778C95"/>
<path d="M392.283 580.865C290.737 616.277 177.674 640.896 59.4902 651.182C177.674 640.896 290.737 616.278 392.283 580.865V580.865Z" fill="#778C95"/>
<path d="M10.7441 645.888C12.8737 645.775 14.9986 645.63 17.1267 645.508C47.0364 546.232 137.518 450.891 276.241 373.803C379.756 316.281 504.519 272.676 637.256 247.611V222.476C504.519 247.541 379.756 291.145 276.241 348.667C125.667 432.342 31.8676 537.516 10.7441 645.888V645.888Z" fill="#40545D"/>
<path d="M769.671 321.675C774.026 315.642 778.173 309.576 782.073 303.476L637.256 222.476V247.611L769.671 321.675Z" fill="#56707B"/>
<path d="M637.256 261.233V247.611C504.519 272.676 379.756 316.281 276.241 373.803C137.518 450.891 47.0365 546.232 17.127 645.508C215.423 634.107 407.427 581.687 559.576 497.139C651.297 446.171 723.268 385.952 769.671 321.676L637.256 247.611V261.233H637.256Z" fill="#DDE4E7"/>
<path d="M707.388 249.566L706.975 389.744L605.4 446.558L605.813 306.38L707.388 249.566Z" fill="#B0B8BC"/>
<path d="M605.812 306.38L605.4 446.558L408.884 337.357L409.297 197.179L605.812 306.38Z" fill="#CFD8DD"/>
<path d="M707.387 249.567L605.813 306.381L409.297 197.179L510.871 140.365L707.387 249.567Z" fill="#DDE4E7"/>
<path d="M449.247 246.516L449.138 283.537L425.4 270.346L425.509 233.325L449.247 246.516Z" fill="#B0B8BC"/>
<path d="M486.37 267.144L486.261 304.165L462.523 290.974L462.633 253.953L486.37 267.144Z" fill="#B0B8BC"/>
<path d="M523.493 287.773L523.384 324.795L499.646 311.604L499.755 274.583L523.493 287.773Z" fill="#B0B8BC"/>
<path d="M560.615 308.4L560.506 345.422L536.769 332.231L536.878 295.21L560.615 308.4Z" fill="#B0B8BC"/>
<path d="M597.738 329.03L597.629 366.051L573.892 352.861L574.001 315.84L597.738 329.03Z" fill="#B0B8BC"/>
<path d="M449.089 299.869L448.98 336.89L425.243 323.7L425.352 286.679L449.089 299.869Z" fill="#B0B8BC"/>
<path d="M486.212 320.497L486.103 357.518L462.366 344.328L462.475 307.307L486.212 320.497Z" fill="#B0B8BC"/>
<path d="M523.334 341.126L523.226 378.147L499.488 364.957L499.597 327.936L523.334 341.126Z" fill="#B0B8BC"/>
<path d="M560.458 361.755L560.349 398.776L536.612 385.586L536.721 348.564L560.458 361.755Z" fill="#B0B8BC"/>
<path d="M597.582 382.386L597.473 419.407L573.735 406.216L573.844 369.195L597.582 382.386Z" fill="#B0B8BC"/>
<path d="M531.963 185.91L499.693 203.844C493.392 207.352 485.142 209.111 476.916 209.1C468.678 209.1 460.452 207.352 454.188 203.856C447.972 200.372 444.853 195.822 444.84 191.259L444.597 110.935C444.621 115.498 447.729 120.061 453.956 123.533C460.208 127.04 468.434 128.788 476.672 128.788C484.898 128.788 493.148 127.04 499.449 123.533L531.732 105.599L531.963 185.91Z" fill="#56707B"/>
<path d="M454.099 98.1652C441.494 105.17 441.428 116.532 453.951 123.537C460.212 127.039 468.438 128.786 476.674 128.786C484.903 128.79 493.15 127.035 499.452 123.533L531.727 105.598L486.373 80.2305L454.099 98.1652Z" fill="#778C95"/>
<path d="M494.296 96.0746L494.234 108.511C494.227 110.794 492.667 113.073 489.552 114.816C483.281 118.323 473.087 118.323 466.775 114.816C463.599 113.051 462.013 110.735 462.02 108.422L462.082 95.9863C462.075 98.2987 463.661 100.615 466.837 102.38C473.149 105.887 483.343 105.887 489.614 102.38C492.729 100.637 494.289 98.3576 494.296 96.0746Z" fill="#DDE4E7"/>
<path d="M489.54 89.6813C495.852 93.1888 495.885 98.872 489.613 102.38C483.342 105.887 473.149 105.887 466.837 102.38C460.525 98.8721 460.491 93.1893 466.763 89.6818C473.034 86.1739 483.228 86.1738 489.54 89.6813Z" fill="#DDE4E7"/>
<path d="M494.296 83.641L494.234 96.077C494.227 98.3599 492.667 100.64 489.552 102.382C483.281 105.89 473.087 105.889 466.775 102.382C463.599 100.617 462.013 98.3011 462.02 95.9887L462.082 83.5527C462.075 85.8651 463.661 88.1811 466.837 89.9461C473.149 93.4536 483.343 93.4537 489.614 89.9461C492.729 88.2035 494.289 85.924 494.296 83.641Z" fill="#778C95"/>
<path d="M489.54 77.2487C495.852 80.7562 495.885 86.4394 489.613 89.947C483.342 93.4546 473.149 93.4544 466.837 89.947C460.525 86.4395 460.491 80.7567 466.763 77.2492C473.034 73.7413 483.228 73.7412 489.54 77.2487Z" fill="#DDE4E7"/>
<path d="M494.296 71.1996L494.234 83.6356C494.227 85.9185 492.667 88.1981 489.552 89.9406C483.281 93.4481 473.087 93.448 466.775 89.9406C463.599 88.1756 462.013 85.8597 462.02 83.5473L462.082 71.1113C462.075 73.4237 463.661 75.7397 466.837 77.5047C473.149 81.0122 483.343 81.0123 489.614 77.5047C492.729 75.7621 494.289 73.4826 494.296 71.1996Z" fill="#DDE4E7"/>
<path d="M489.54 64.8053C495.852 68.3128 495.885 73.996 489.613 77.5037C483.342 81.0112 473.149 81.011 466.837 77.5037C460.525 73.9962 460.491 68.3133 466.763 64.8058C473.034 61.298 483.228 61.2978 489.54 64.8053Z" fill="#DDE4E7"/>
<path d="M494.296 58.7651L494.234 71.201C494.227 73.484 492.667 75.7635 489.552 77.5061C483.281 81.0136 473.087 81.0134 466.775 77.5061C463.599 75.7411 462.013 73.4251 462.02 71.1127L462.082 58.6768C462.075 60.9892 463.661 63.3051 466.837 65.0701C473.149 68.5776 483.343 68.5778 489.614 65.0701C492.729 63.3277 494.289 61.0482 494.296 58.7651V58.7651Z" fill="#778C95"/>
<path d="M489.54 52.3726C495.852 55.8802 495.885 61.5633 489.613 65.071C483.342 68.5785 473.149 68.5784 466.837 65.071C460.525 61.5635 460.491 55.8806 466.763 52.3731C473.034 48.8654 483.228 48.8651 489.54 52.3726Z" fill="#DDE4E7"/>
<path d="M494.296 46.3295L494.234 58.7655C494.227 61.0484 492.667 63.328 489.552 65.0705C483.281 68.578 473.087 68.5779 466.775 65.0705C463.599 63.3055 462.013 60.9896 462.02 58.6772L462.082 46.2412C462.075 48.5536 463.661 50.8695 466.837 52.6345C473.149 56.1421 483.343 56.1422 489.614 52.6345C492.729 50.892 494.289 48.6124 494.296 46.3295Z" fill="#DDE4E7"/>
<path d="M489.54 39.9381C495.852 43.4457 495.885 49.1288 489.613 52.6365C483.342 56.144 473.149 56.1438 466.837 52.6365C460.525 49.129 460.491 43.4461 466.763 39.9386C473.034 36.4308 483.228 36.4306 489.54 39.9381Z" fill="#DDE4E7"/>
<path d="M494.296 33.8959L494.234 46.3319C494.227 48.6148 492.667 50.8944 489.552 52.6369C483.281 56.1444 473.087 56.1443 466.775 52.6369C463.599 50.8719 462.013 48.556 462.02 46.2436L462.082 33.8076C462.075 36.12 463.661 38.436 466.837 40.201C473.149 43.7085 483.343 43.7086 489.614 40.201C492.729 38.4584 494.289 36.1789 494.296 33.8959Z" fill="#778C95"/>
<path d="M489.54 27.5045C495.852 31.0121 495.885 36.6952 489.613 40.2029C483.342 43.7104 473.149 43.7103 466.837 40.2029C460.525 36.6954 460.491 31.0125 466.763 27.505C473.034 23.9972 483.228 23.997 489.54 27.5045V27.5045Z" fill="#DDE4E7"/>
<path d="M494.296 21.4604L494.234 33.8963C494.227 36.1793 492.667 38.4588 489.552 40.2014C483.281 43.7089 473.087 43.7087 466.775 40.2014C463.599 38.4364 462.013 36.1204 462.02 33.808L462.082 21.3721C462.075 23.6845 463.661 26.0004 466.837 27.7654C473.149 31.2729 483.343 31.2731 489.614 27.7654C492.729 26.0229 494.289 23.7433 494.296 21.4604V21.4604Z" fill="#DDE4E7"/>
<path d="M489.54 15.067C495.852 18.5746 495.885 24.2577 489.613 27.7654C483.342 31.2729 473.149 31.2728 466.837 27.7654C460.525 24.2579 460.491 18.575 466.763 15.0675C473.034 11.5597 483.228 11.5595 489.54 15.067Z" fill="#DDE4E7"/>
<path d="M494.296 9.02468L494.234 21.4606C494.227 23.7436 492.667 26.0231 489.552 27.7658C483.281 31.2733 473.087 31.2732 466.775 27.7658C463.599 26.0008 462.013 23.6849 462.02 21.3725L462.082 8.93652C462.075 11.2488 463.661 13.5647 466.837 15.3299C473.149 18.8374 483.343 18.8375 489.614 15.3299C492.729 13.5873 494.289 11.3078 494.296 9.02468V9.02468Z" fill="#778C95"/>
<path d="M489.54 2.63046C495.852 6.13798 495.885 11.8211 489.613 15.3288C483.342 18.8363 473.149 18.8362 466.837 15.3288C460.525 11.8213 460.491 6.13845 466.763 2.63094C473.034 -0.87674 483.228 -0.877059 489.54 2.63046V2.63046Z" fill="#DDE4E7"/>
<path d="M488.65 4.12452C485.861 2.57616 482.125 1.71582 478.138 1.71582C474.151 1.71582 470.433 2.57616 467.662 4.12452C465.213 5.48398 463.872 7.2045 463.872 8.95961C463.872 10.3535 464.748 11.7472 466.357 12.9513C466.75 12.642 467.179 12.3488 467.662 12.0909C470.433 10.5426 474.152 9.68222 478.138 9.68222C482.125 9.68222 485.861 10.5426 488.65 12.0909C489.151 12.3665 489.615 12.6589 490.027 12.9857C491.636 11.7986 492.512 10.4047 492.512 9.01174C492.512 7.23909 491.135 5.50167 488.65 4.12452V4.12452Z" fill="#B0B8BC"/>
<path d="M478.139 9.68262C474.152 9.68262 470.433 10.543 467.663 12.0913C467.18 12.3494 466.751 12.6426 466.357 12.9518C466.769 13.2619 467.233 13.5719 467.734 13.8466C470.523 15.3959 474.259 16.2385 478.246 16.2385C482.232 16.2385 485.951 15.3959 488.722 13.8466C489.205 13.5719 489.634 13.2963 490.027 12.9862C489.616 12.6595 489.151 12.3671 488.65 12.0915C485.862 10.543 482.125 9.68262 478.139 9.68262Z" fill="#9AA1A5"/>
<path d="M598.901 220.564L566.63 238.499C560.33 242.006 552.079 243.765 543.853 243.754C535.615 243.754 527.389 242.006 521.125 238.511C514.91 235.027 511.79 230.476 511.778 225.913L511.534 145.59C511.559 150.153 514.666 154.715 520.894 158.187C527.145 161.695 535.371 163.442 543.609 163.442C551.836 163.442 560.086 161.695 566.386 158.187L598.669 140.253L598.901 220.564Z" fill="#485F69"/>
<path d="M521.036 132.817C508.431 139.822 508.365 151.185 520.888 158.189C527.15 161.692 535.375 163.438 543.612 163.438C551.84 163.443 560.087 161.687 566.39 158.185L598.664 140.251L553.311 114.883L521.036 132.817Z" fill="#778C95"/>
<path d="M561.233 130.729L561.171 143.165C561.164 145.448 559.605 147.727 556.489 149.47C550.218 152.977 540.025 152.977 533.713 149.47C530.537 147.705 528.95 145.389 528.957 143.077L529.019 130.641C529.012 132.953 530.599 135.269 533.775 137.034C540.087 140.541 550.28 140.542 556.551 137.034C559.667 135.291 561.226 133.012 561.233 130.729Z" fill="#DDE4E7"/>
<path d="M556.477 124.337C562.789 127.845 562.822 133.528 556.551 137.036C550.28 140.544 540.086 140.543 533.775 137.036C527.463 133.528 527.429 127.845 533.7 124.338C539.971 120.83 550.165 120.83 556.477 124.337V124.337Z" fill="#DDE4E7"/>
<path d="M561.233 118.295L561.171 130.731C561.164 133.014 559.605 135.294 556.489 137.036C550.218 140.544 540.025 140.544 533.713 137.036C530.537 135.271 528.95 132.955 528.957 130.643L529.019 118.207C529.012 120.519 530.599 122.835 533.775 124.6C540.087 128.108 550.28 128.108 556.551 124.6C559.667 122.858 561.226 120.578 561.233 118.295V118.295Z" fill="#778C95"/>
<path d="M556.477 111.9C562.789 115.407 562.822 121.091 556.551 124.598C550.28 128.106 540.086 128.106 533.775 124.598C527.463 121.091 527.429 115.408 533.7 111.9C539.971 108.393 550.165 108.393 556.477 111.9V111.9Z" fill="#DDE4E7"/>
<path d="M561.233 105.858L561.171 118.294C561.164 120.577 559.605 122.856 556.489 124.599C550.218 128.106 540.025 128.106 533.713 124.599C530.537 122.834 528.95 120.518 528.957 118.205L529.019 105.77C529.012 108.082 530.599 110.398 533.775 112.163C540.087 115.67 550.28 115.671 556.551 112.163C559.667 110.42 561.226 108.141 561.233 105.858Z" fill="#DDE4E7"/>
<path d="M556.477 99.4665C562.789 102.974 562.822 108.657 556.551 112.165C550.28 115.672 540.086 115.672 533.775 112.165C527.463 108.657 527.429 102.974 533.7 99.4669C539.971 95.9591 550.165 95.9589 556.477 99.4665Z" fill="#DDE4E7"/>
<path d="M561.233 93.4223L561.171 105.858C561.164 108.141 559.605 110.421 556.489 112.163C550.218 115.671 540.025 115.671 533.713 112.163C530.537 110.398 528.95 108.082 528.957 105.77L529.019 93.334C529.012 95.6464 530.599 97.9623 533.775 99.7273C540.087 103.235 550.28 103.235 556.551 99.7273C559.667 97.9848 561.226 95.7052 561.233 93.4223Z" fill="#778C95"/>
<path d="M556.477 87.0299C562.789 90.5375 562.822 96.2206 556.551 99.7283C550.28 103.236 540.086 103.236 533.775 99.7283C527.463 96.2208 527.429 90.5379 533.7 87.0304C539.971 83.5226 550.165 83.5224 556.477 87.0299Z" fill="#DDE4E7"/>
<path d="M561.233 80.9867L561.171 93.4227C561.164 95.7056 559.605 97.9852 556.489 99.7277C550.218 103.235 540.025 103.235 533.713 99.7277C530.537 97.9627 528.95 95.6468 528.957 93.3344L529.019 80.8984C529.012 83.2109 530.599 85.5268 533.775 87.2918C540.087 90.7993 550.28 90.7994 556.551 87.2918C559.667 85.5492 561.226 83.2698 561.233 80.9867Z" fill="#DDE4E7"/>
<path d="M556.477 74.5924C562.789 78.0999 562.822 83.783 556.551 87.2907C550.28 90.7982 540.086 90.7981 533.775 87.2907C527.463 83.7832 527.429 78.1004 533.7 74.5929C539.971 71.0852 550.165 71.0849 556.477 74.5924Z" fill="#DDE4E7"/>
<path d="M561.233 68.5541L561.171 80.9901C561.164 83.273 559.605 85.5526 556.489 87.2951C550.218 90.8026 540.025 90.8025 533.713 87.2951C530.537 85.5301 528.95 83.2142 528.957 80.9018L529.019 68.4658C529.012 70.7782 530.599 73.0942 533.775 74.8592C540.087 78.3667 550.28 78.3668 556.551 74.8592C559.667 73.1166 561.226 70.8371 561.233 68.5541Z" fill="#778C95"/>
<path d="M556.477 62.1616C562.789 65.6692 562.822 71.3523 556.551 74.86C550.28 78.3675 540.086 78.3674 533.775 74.86C527.463 71.3525 527.429 65.6696 533.7 62.1621C539.971 58.6545 550.165 58.6543 556.477 62.1616Z" fill="#DDE4E7"/>
<path d="M561.233 56.1108L561.171 68.5467C561.164 70.8297 559.605 73.1092 556.489 74.8518C550.218 78.3593 540.025 78.3591 533.713 74.8518C530.537 73.0868 528.95 70.7708 528.957 68.4584L529.019 56.0225C529.012 58.3349 530.599 60.6508 533.775 62.4158C540.087 65.9233 550.28 65.9235 556.551 62.4158C559.667 60.6733 561.226 58.3937 561.233 56.1108Z" fill="#DDE4E7"/>
<path d="M556.477 49.7184C562.789 53.2259 562.822 58.9091 556.551 62.4168C550.28 65.9243 540.086 65.9241 533.775 62.4168C527.463 58.9092 527.429 53.2264 533.7 49.7189C539.971 46.2111 550.165 46.2109 556.477 49.7184V49.7184Z" fill="#DDE4E7"/>
<path d="M561.233 43.6782L561.171 56.1141C561.164 58.397 559.605 60.6766 556.489 62.4191C550.218 65.9267 540.025 65.9265 533.713 62.4191C530.537 60.6541 528.95 58.3382 528.957 56.0258L529.019 43.5898C529.012 45.9023 530.599 48.2182 533.775 49.9832C540.087 53.4907 550.28 53.4909 556.551 49.9832C559.667 48.2407 561.226 45.9611 561.233 43.6782Z" fill="#778C95"/>
<path d="M556.477 37.2858C562.789 40.7933 562.822 46.4765 556.551 49.9841C550.28 53.4917 540.086 53.4915 533.775 49.9841C527.463 46.4766 527.429 40.7938 533.7 37.2863C539.971 33.7784 550.165 33.7783 556.477 37.2858Z" fill="#DDE4E7"/>
<path d="M555.588 38.7788C552.799 37.2305 549.062 36.3701 545.076 36.3701C541.089 36.3701 537.371 37.2305 534.6 38.7788C532.15 40.1383 530.81 41.8588 530.81 43.6139C530.81 45.0078 531.686 46.4015 533.295 47.6056C533.688 47.2963 534.117 47.0031 534.6 46.7452C537.371 45.1969 541.089 44.3365 545.076 44.3365C549.062 44.3365 552.799 45.1969 555.588 46.7452C556.088 47.0208 556.553 47.3132 556.964 47.64C558.573 46.4529 559.449 45.059 559.449 43.666C559.449 41.8932 558.072 40.1558 555.588 38.7788V38.7788Z" fill="#B0B8BC"/>
<path d="M545.076 44.3359C541.089 44.3359 537.371 45.1963 534.6 46.7446C534.117 47.0026 533.688 47.2957 533.295 47.605C533.706 47.915 534.171 48.2251 534.671 48.4997C537.46 50.0491 541.197 50.8917 545.183 50.8917C549.17 50.8917 552.888 50.0491 555.659 48.4997C556.142 48.2251 556.571 47.9495 556.964 47.6394C556.553 47.3126 556.088 47.0203 555.588 46.7446C552.799 45.1963 549.063 44.3359 545.076 44.3359Z" fill="#9AA1A5"/>
<path d="M665.838 255.22L633.568 273.154C627.267 276.661 619.017 278.421 610.791 278.409C602.553 278.409 594.327 276.661 588.063 273.166C581.847 269.682 578.728 265.131 578.715 260.569L578.472 180.245C578.496 184.808 581.604 189.371 587.831 192.843C594.083 196.35 602.309 198.097 610.547 198.097C618.773 198.097 627.023 196.35 633.324 192.843L665.606 174.908L665.838 255.22Z" fill="#56707B"/>
<path d="M587.976 167.475C575.371 174.479 575.305 185.842 587.828 192.847C594.089 196.349 602.315 198.095 610.552 198.096C618.78 198.1 627.027 196.345 633.329 192.842L665.604 174.908L620.251 149.54L587.976 167.475Z" fill="#778C95"/>
<path d="M628.169 165.381L628.107 177.817C628.1 180.1 626.54 182.38 623.425 184.122C617.154 187.63 606.961 187.63 600.649 184.122C597.472 182.357 595.886 180.041 595.893 177.729L595.955 165.293C595.948 167.605 597.534 169.921 600.711 171.686C607.023 175.194 617.216 175.194 623.487 171.686C626.602 169.944 628.162 167.664 628.169 165.381Z" fill="#DDE4E7"/>
<path d="M623.413 158.989C629.725 162.496 629.758 168.18 623.487 171.687C617.216 175.195 607.022 175.195 600.71 171.687C594.398 168.18 594.364 162.497 600.636 158.989C606.907 155.482 617.101 155.481 623.413 158.989Z" fill="#DDE4E7"/>
<path d="M628.168 152.945L628.106 165.381C628.099 167.664 626.539 169.943 623.424 171.686C617.153 175.193 606.96 175.193 600.648 171.686C597.471 169.921 595.885 167.605 595.892 165.292L595.954 152.856C595.947 155.169 597.533 157.485 600.71 159.25C607.022 162.757 617.215 162.757 623.486 159.25C626.601 157.507 628.161 155.228 628.168 152.945Z" fill="#778C95"/>
<path d="M623.412 146.553C629.724 150.061 629.757 155.744 623.486 159.252C617.215 162.759 607.021 162.759 600.709 159.252C594.397 155.744 594.364 150.061 600.635 146.554C606.906 143.046 617.1 143.046 623.412 146.553Z" fill="#DDE4E7"/>
<path d="M628.168 140.509L628.106 152.945C628.099 155.228 626.539 157.508 623.424 159.25C617.153 162.758 606.96 162.758 600.648 159.25C597.471 157.485 595.885 155.169 595.892 152.857L595.954 140.421C595.947 142.733 597.533 145.049 600.71 146.814C607.022 150.322 617.215 150.322 623.486 146.814C626.601 145.072 628.161 142.792 628.168 140.509Z" fill="#DDE4E7"/>
<path d="M623.412 134.115C629.724 137.622 629.757 143.306 623.486 146.813C617.215 150.321 607.021 150.321 600.709 146.813C594.397 143.306 594.364 137.623 600.635 134.115C606.906 130.608 617.1 130.607 623.412 134.115Z" fill="#DDE4E7"/>
<path d="M628.168 128.074L628.106 140.51C628.099 142.793 626.539 145.072 623.424 146.815C617.153 150.322 606.96 150.322 600.648 146.815C597.471 145.05 595.885 142.734 595.892 140.421L595.954 127.985C595.947 130.298 597.533 132.614 600.71 134.379C607.022 137.886 617.215 137.886 623.486 134.379C626.601 132.636 628.161 130.357 628.168 128.074Z" fill="#778C95"/>
<path d="M623.412 121.679C629.724 125.187 629.757 130.87 623.486 134.378C617.215 137.885 607.021 137.885 600.709 134.378C594.397 130.87 594.364 125.187 600.635 121.68C606.906 118.172 617.1 118.172 623.412 121.679V121.679Z" fill="#DDE4E7"/>
<path d="M628.169 115.638L628.107 128.074C628.1 130.357 626.54 132.637 623.425 134.379C617.154 137.887 606.961 137.887 600.649 134.379C597.472 132.614 595.886 130.298 595.893 127.986L595.955 115.55C595.948 117.862 597.534 120.178 600.711 121.943C607.023 125.451 617.216 125.451 623.487 121.943C626.602 120.201 628.162 117.921 628.169 115.638V115.638Z" fill="#DDE4E7"/>
<path d="M623.413 109.247C629.725 112.754 629.758 118.437 623.487 121.945C617.216 125.452 607.022 125.452 600.71 121.945C594.398 118.437 594.364 112.755 600.636 109.247C606.907 105.74 617.101 105.739 623.413 109.247Z" fill="#DDE4E7"/>
<path d="M628.169 103.202L628.107 115.638C628.1 117.92 626.54 120.2 623.425 121.943C617.154 125.45 606.961 125.45 600.649 121.943C597.472 120.178 595.886 117.862 595.893 115.549L595.955 103.113C595.948 105.426 597.534 107.742 600.711 109.507C607.023 113.014 617.216 113.014 623.487 109.507C626.602 107.764 628.162 105.485 628.169 103.202Z" fill="#778C95"/>
<path d="M623.412 96.8101C629.724 100.318 629.757 106.001 623.486 109.508C617.215 113.016 607.021 113.016 600.709 109.508C594.397 106.001 594.364 100.318 600.635 96.8106C606.906 93.303 617.1 93.3026 623.412 96.8101Z" fill="#DDE4E7"/>
<path d="M628.168 90.766L628.106 103.202C628.099 105.485 626.539 107.765 623.424 109.507C617.153 113.015 606.96 113.014 600.648 109.507C597.471 107.742 595.885 105.426 595.892 103.114L595.954 90.6777C595.947 92.9901 597.533 95.3061 600.71 97.0711C607.022 100.579 617.215 100.579 623.486 97.0711C626.601 95.3285 628.161 93.0491 628.168 90.766Z" fill="#DDE4E7"/>
<path d="M623.412 84.3736C629.724 87.8811 629.757 93.5642 623.486 97.0719C617.215 100.579 607.021 100.579 600.709 97.0719C594.397 93.5644 594.364 87.8816 600.635 84.374C606.906 80.8665 617.1 80.866 623.412 84.3736Z" fill="#DDE4E7"/>
<path d="M628.168 78.3276L628.106 90.7635C628.099 93.0465 626.539 95.326 623.424 97.0686C617.153 100.576 606.96 100.576 600.648 97.0686C597.471 95.3036 595.885 92.9876 595.892 90.6752L595.954 78.2393C595.947 80.5517 597.533 82.8676 600.71 84.6326C607.022 88.1401 617.215 88.1403 623.486 84.6326C626.601 82.8901 628.161 80.6105 628.168 78.3276Z" fill="#778C95"/>
<path d="M623.412 71.935C629.724 75.4425 629.757 81.1257 623.486 84.6334C617.215 88.1409 607.021 88.1407 600.709 84.6334C594.397 81.1259 594.364 75.443 600.635 71.9355C606.906 68.428 617.1 68.4277 623.412 71.935Z" fill="#DDE4E7"/>
<path d="M622.522 73.4282C619.733 71.8799 615.997 71.0195 612.01 71.0195C608.024 71.0195 604.305 71.8799 601.534 73.4282C599.085 74.7877 597.744 76.5082 597.744 78.2633C597.744 79.6572 598.62 81.0509 600.229 82.255C600.623 81.9457 601.052 81.6526 601.534 81.3946C604.305 79.8463 608.024 78.9859 612.01 78.9859C615.997 78.9859 619.733 79.8463 622.522 81.3946C623.023 81.6703 623.487 81.9626 623.899 82.2894C625.508 81.1023 626.384 79.7084 626.384 78.3155C626.384 76.5426 625.007 74.8052 622.522 73.4282V73.4282Z" fill="#B0B8BC"/>
<path d="M612.011 78.9863C608.024 78.9863 604.306 79.8467 601.534 81.395C601.052 81.653 600.623 81.9461 600.229 82.2554C600.641 82.5654 601.105 82.8755 601.606 83.1501C604.395 84.6995 608.131 85.5421 612.118 85.5421C616.105 85.5421 619.823 84.6995 622.594 83.1501C623.077 82.8755 623.506 82.5999 623.899 82.2898C623.488 81.963 623.023 81.6707 622.522 81.395C619.734 79.8467 615.997 78.9863 612.011 78.9863V78.9863Z" fill="#9AA1A5"/>
<path d="M461.149 380.469L461.051 413.495L426.438 432.855L426.536 399.829L461.149 380.469Z" fill="#B0B8BC"/>
<path d="M426.534 399.828L426.437 432.855L362.088 397.097L362.185 364.07L426.534 399.828Z" fill="#CFD8DD"/>
<path d="M461.147 380.469L426.534 399.829L362.186 364.071L396.798 344.711L461.147 380.469Z" fill="#DDE4E7"/>
<path d="M420.441 403.606L420.343 436.633L385.73 455.993L385.828 422.967L420.441 403.606Z" fill="#B0B8BC"/>
<path d="M385.827 422.968L385.73 455.994L321.381 420.236L321.478 387.21L385.827 422.968Z" fill="#CFD8DD"/>
<path d="M420.44 403.607L385.827 422.967L321.479 387.209L356.091 367.849L420.44 403.607Z" fill="#DDE4E7"/>
<path d="M379.735 426.746L379.637 459.773L345.024 479.132L345.122 446.106L379.735 426.746Z" fill="#B0B8BC"/>
<path d="M345.121 446.107L345.024 479.133L280.675 443.375L280.772 410.349L345.121 446.107Z" fill="#CFD8DD"/>
<path d="M379.733 426.746L345.12 446.106L280.771 410.348L315.384 390.988L379.733 426.746Z" fill="#DDE4E7"/>
<path d="M461.15 344.958L461.052 377.984L426.439 397.345L426.537 364.318L461.15 344.958Z" fill="#B0B8BC"/>
<path d="M426.536 364.318L426.439 397.345L362.09 361.587L362.187 328.561L426.536 364.318Z" fill="#CFD8DD"/>
<path d="M461.149 344.96L426.536 364.32L362.188 328.562L396.8 309.202L461.149 344.96Z" fill="#DDE4E7"/>
<path d="M420.442 368.096L420.344 401.122L385.731 420.482L385.829 387.456L420.442 368.096Z" fill="#B0B8BC"/>
<path d="M385.828 387.456L385.731 420.483L321.382 384.725L321.479 351.698L385.828 387.456Z" fill="#CFD8DD"/>
<path d="M420.44 368.096L385.827 387.456L321.479 351.698L356.091 332.338L420.44 368.096Z" fill="#DDE4E7"/>
<path d="M379.735 391.234L379.637 424.261L345.024 443.621L345.122 410.594L379.735 391.234Z" fill="#B0B8BC"/>
<path d="M345.121 410.594L345.024 443.62L280.675 407.862L280.772 374.836L345.121 410.594Z" fill="#CFD8DD"/>
<path d="M379.733 391.234L345.12 410.595L280.771 374.837L315.384 355.477L379.733 391.234Z" fill="#DDE4E7"/>
<path d="M461.149 309.444L461.051 342.471L426.438 361.831L426.536 328.804L461.149 309.444Z" fill="#B0B8BC"/>
<path d="M426.534 328.804L426.437 361.83L362.088 326.072L362.185 293.046L426.534 328.804Z" fill="#CFD8DD"/>
<path d="M461.147 309.445L426.534 328.805L362.186 293.047L396.798 273.687L461.147 309.445Z" fill="#DDE4E7"/>
<path d="M420.442 332.584L420.344 365.61L385.731 384.971L385.829 351.944L420.442 332.584Z" fill="#B0B8BC"/>
<path d="M385.828 351.943L385.731 384.97L321.382 349.212L321.479 316.186L385.828 351.943Z" fill="#CFD8DD"/>
<path d="M420.44 332.584L385.827 351.944L321.479 316.186L356.091 296.826L420.44 332.584Z" fill="#DDE4E7"/>
<path d="M379.735 355.719L379.637 388.745L345.024 408.105L345.122 375.079L379.735 355.719Z" fill="#B0B8BC"/>
<path d="M345.121 375.08L345.024 408.107L280.675 372.349L280.772 339.322L345.121 375.08Z" fill="#CFD8DD"/>
<path d="M379.733 355.72L345.12 375.08L280.771 339.322L315.384 319.962L379.733 355.72Z" fill="#DDE4E7"/>
<path d="M326.087 450.375L325.99 483.401L291.377 502.761L291.474 469.735L326.087 450.375Z" fill="#CB4844"/>
<path d="M291.474 469.735L291.376 502.761L227.027 467.003L227.125 433.977L291.474 469.735Z" fill="#EE5550"/>
<path d="M326.087 450.376L291.474 469.736L227.125 433.978L261.738 414.618L326.087 450.376Z" fill="#F17572"/>
<path d="M285.379 473.513L285.282 506.539L250.669 525.899L250.766 492.873L285.379 473.513Z" fill="#CB4844"/>
<path d="M250.766 492.872L250.668 525.899L186.319 490.141L186.417 457.114L250.766 492.872Z" fill="#EE5550"/>
<path d="M285.378 473.513L250.765 492.873L186.416 457.115L221.029 437.755L285.378 473.513Z" fill="#F17572"/>
<path d="M244.67 496.65L244.573 529.677L209.96 549.037L210.057 516.011L244.67 496.65Z" fill="#CB4844"/>
<path d="M210.056 516.011L209.958 549.037L145.609 513.279L145.707 480.253L210.056 516.011Z" fill="#EE5550"/>
<path d="M244.669 496.651L210.056 516.011L145.707 480.253L180.32 460.893L244.669 496.651Z" fill="#F17572"/>
<path d="M326.087 414.856L325.99 447.883L291.377 467.243L291.474 434.217L326.087 414.856Z" fill="#CB4844"/>
<path d="M291.474 434.218L291.376 467.244L227.027 431.486L227.125 398.46L291.474 434.218Z" fill="#EE5550"/>
<path d="M326.087 414.858L291.474 434.218L227.125 398.46L261.738 379.1L326.087 414.858Z" fill="#F17572"/>
<path d="M285.379 437.998L285.282 471.024L250.669 490.384L250.766 457.358L285.379 437.998Z" fill="#CB4844"/>
<path d="M250.766 457.359L250.668 490.385L186.319 454.627L186.417 421.601L250.766 457.359Z" fill="#EE5550"/>
<path d="M285.378 437.999L250.765 457.359L186.416 421.601L221.029 402.241L285.378 437.999Z" fill="#F17572"/>
<path d="M244.67 461.135L244.573 494.161L209.96 513.521L210.057 480.495L244.67 461.135Z" fill="#CB4844"/>
<path d="M210.056 480.496L209.958 513.523L145.609 477.765L145.707 444.738L210.056 480.496Z" fill="#EE5550"/>
<path d="M244.669 461.135L210.056 480.495L145.707 444.737L180.32 425.377L244.669 461.135Z" fill="#F17572"/>
<path d="M326.087 379.346L325.99 412.372L291.377 431.732L291.474 398.706L326.087 379.346Z" fill="#CB4844"/>
<path d="M291.474 398.706L291.376 431.733L227.027 395.975L227.125 362.948L291.474 398.706Z" fill="#EE5550"/>
<path d="M326.087 379.346L291.474 398.706L227.125 362.948L261.738 343.588L326.087 379.346Z" fill="#F17572"/>
<path d="M285.379 402.487L285.282 435.514L250.669 454.874L250.766 421.847L285.379 402.487Z" fill="#CB4844"/>
<path d="M250.766 421.849L250.668 454.875L186.319 419.117L186.417 386.091L250.766 421.849Z" fill="#EE5550"/>
<path d="M285.378 402.488L250.765 421.849L186.416 386.091L221.029 366.73L285.378 402.488Z" fill="#F17572"/>
<path d="M244.67 425.625L244.573 458.651L209.96 478.011L210.057 444.985L244.67 425.625Z" fill="#CB4844"/>
<path d="M210.056 444.986L209.958 478.012L145.609 442.254L145.707 409.228L210.056 444.986Z" fill="#EE5550"/>
<path d="M244.669 425.626L210.056 444.986L145.707 409.228L180.32 389.868L244.669 425.626Z" fill="#F17572"/>
<path d="M536.422 428.602L536.325 461.628L501.712 480.988L501.809 447.962L536.422 428.602Z" fill="#CB4844"/>
<path d="M501.808 447.964L501.711 480.99L437.362 445.232L437.46 412.206L501.808 447.964Z" fill="#EE5550"/>
<path d="M536.422 428.603L501.809 447.963L437.46 412.205L472.073 392.845L536.422 428.603Z" fill="#F17572"/>
<path d="M495.714 451.743L495.617 484.769L461.004 504.13L461.101 471.103L495.714 451.743Z" fill="#CB4844"/>
<path d="M461.101 471.104L461.003 504.13L396.654 468.372L396.752 435.346L461.101 471.104Z" fill="#EE5550"/>
<path d="M495.713 451.744L461.1 471.104L396.751 435.346L431.364 415.986L495.713 451.744Z" fill="#F17572"/>
<path d="M455.005 474.881L454.908 507.907L420.295 527.267L420.392 494.241L455.005 474.881Z" fill="#CB4844"/>
<path d="M420.391 494.241L420.293 527.268L355.944 491.51L356.042 458.483L420.391 494.241Z" fill="#EE5550"/>
<path d="M455.004 474.882L420.391 494.242L356.042 458.484L390.655 439.124L455.004 474.882Z" fill="#F17572"/>
<path d="M536.422 393.091L536.325 426.117L501.712 445.477L501.809 412.451L536.422 393.091Z" fill="#CB4844"/>
<path d="M501.808 412.451L501.711 445.478L437.362 409.72L437.46 376.693L501.808 412.451Z" fill="#EE5550"/>
<path d="M536.422 393.091L501.809 412.451L437.46 376.693L472.073 357.333L536.422 393.091Z" fill="#F17572"/>
<path d="M495.714 416.229L495.617 449.255L461.004 468.615L461.101 435.589L495.714 416.229Z" fill="#CB4844"/>
<path d="M461.101 435.59L461.003 468.616L396.654 432.858L396.752 399.832L461.101 435.59Z" fill="#EE5550"/>
<path d="M495.713 416.231L461.1 435.591L396.751 399.833L431.364 380.473L495.713 416.231Z" fill="#F17572"/>
<path d="M455.005 439.364L454.908 472.391L420.295 491.751L420.392 458.724L455.005 439.364Z" fill="#CB4844"/>
<path d="M420.391 458.727L420.293 491.753L355.944 455.995L356.042 422.969L420.391 458.727Z" fill="#EE5550"/>
<path d="M455.004 439.366L420.391 458.726L356.042 422.969L390.655 403.608L455.004 439.366Z" fill="#F17572"/>
<path d="M536.421 357.577L536.324 390.604L501.711 409.964L501.808 376.937L536.421 357.577Z" fill="#CB4844"/>
<path d="M501.807 376.938L501.709 409.964L437.36 374.206L437.458 341.18L501.807 376.938Z" fill="#EE5550"/>
<path d="M536.42 357.578L501.807 376.938L437.458 341.18L472.071 321.82L536.42 357.578Z" fill="#F17572"/>
<path d="M495.713 380.713L495.616 413.739L461.003 433.099L461.1 400.073L495.713 380.713Z" fill="#CB4844"/>
<path d="M461.1 400.075L461.002 433.101L396.653 397.343L396.751 364.316L461.1 400.075Z" fill="#EE5550"/>
<path d="M495.713 380.714L461.1 400.074L396.751 364.316L431.364 344.956L495.713 380.714Z" fill="#F17572"/>
<path d="M455.005 403.854L454.908 436.881L420.295 456.241L420.392 423.215L455.005 403.854Z" fill="#CB4844"/>
<path d="M420.391 423.215L420.293 456.241L355.944 420.483L356.042 387.457L420.391 423.215Z" fill="#EE5550"/>
<path d="M455.004 403.855L420.391 423.215L356.042 387.457L390.655 368.097L455.004 403.855Z" fill="#F17572"/>
<path d="M407.943 500.712L407.846 533.738L373.233 553.098L373.331 520.072L407.943 500.712Z" fill="#525BA8"/>
<path d="M373.33 520.072L373.233 553.099L308.884 517.341L308.981 484.314L373.33 520.072Z" fill="#616AB1"/>
<path d="M407.942 500.713L373.329 520.073L308.98 484.315L343.593 464.955L407.942 500.713Z" fill="#8189C3"/>
<path d="M367.235 523.852L367.137 556.878L332.524 576.238L332.622 543.212L367.235 523.852Z" fill="#525BA8"/>
<path d="M332.62 543.213L332.523 576.239L268.174 540.481L268.271 507.455L332.62 543.213Z" fill="#616AB1"/>
<path d="M367.233 523.852L332.62 543.212L268.271 507.454L302.884 488.094L367.233 523.852Z" fill="#8189C3"/>
<path d="M326.526 546.989L326.428 580.016L291.815 599.376L291.913 566.349L326.526 546.989Z" fill="#525BA8"/>
<path d="M291.912 566.352L291.815 599.378L227.466 563.62L227.563 530.594L291.912 566.352Z" fill="#616AB1"/>
<path d="M326.525 546.989L291.913 566.35L227.563 530.592L262.176 511.231L326.525 546.989Z" fill="#8189C3"/>
<path d="M407.943 465.199L407.846 498.226L373.233 517.586L373.331 484.559L407.943 465.199Z" fill="#525BA8"/>
<path d="M373.33 484.56L373.233 517.586L308.884 481.828L308.981 448.802L373.33 484.56Z" fill="#616AB1"/>
<path d="M407.942 465.199L373.329 484.56L308.98 448.802L343.593 429.441L407.942 465.199Z" fill="#8189C3"/>
<path d="M367.233 488.341L367.135 521.367L332.522 540.727L332.62 507.701L367.233 488.341Z" fill="#525BA8"/>
<path d="M332.62 507.701L332.523 540.728L268.174 504.97L268.271 471.943L332.62 507.701Z" fill="#616AB1"/>
<path d="M367.233 488.342L332.62 507.702L268.271 471.944L302.884 452.584L367.233 488.342Z" fill="#8189C3"/>
<path d="M326.526 511.475L326.428 544.501L291.815 563.861L291.913 530.835L326.526 511.475Z" fill="#525BA8"/>
<path d="M291.912 530.836L291.815 563.862L227.466 528.105L227.563 495.078L291.912 530.836Z" fill="#616AB1"/>
<path d="M326.525 511.475L291.913 530.835L227.563 495.077L262.176 475.717L326.525 511.475Z" fill="#8189C3"/>
<path d="M407.943 429.687L407.846 462.713L373.233 482.073L373.331 449.047L407.943 429.687Z" fill="#525BA8"/>
<path d="M373.33 449.048L373.233 482.074L308.884 446.316L308.981 413.29L373.33 449.048Z" fill="#616AB1"/>
<path d="M407.942 429.687L373.329 449.047L308.98 413.289L343.593 393.929L407.942 429.687Z" fill="#8189C3"/>
<path d="M367.234 452.822L367.136 485.849L332.523 505.209L332.621 472.182L367.234 452.822Z" fill="#525BA8"/>
<path d="M332.619 472.185L332.522 505.211L268.173 469.453L268.27 436.427L332.619 472.185Z" fill="#616AB1"/>
<path d="M367.232 452.822L332.619 472.183L268.271 436.425L302.883 417.064L367.232 452.822Z" fill="#8189C3"/>
<path d="M326.526 475.965L326.428 508.991L291.815 528.351L291.913 495.325L326.526 475.965Z" fill="#525BA8"/>
<path d="M291.912 495.325L291.815 528.352L227.466 492.594L227.563 459.567L291.912 495.325Z" fill="#616AB1"/>
<path d="M326.525 475.966L291.913 495.326L227.563 459.568L262.176 440.208L326.525 475.966Z" fill="#8189C3"/>
<path d="M168.638 1316.38L287.852 1375.66C336.263 1399.73 391.838 1407.33 445.076 1396.3C553.619 1373.82 651.104 1338.49 731.594 1293.61C820.012 1244.31 887.848 1183.51 927.384 1115.6L927.069 1008.08C887.533 1076.04 819.697 1136.85 731.279 1186.14C586.996 1266.58 388.056 1316.38 168.638 1316.38Z" fill="#4C5C75"/>
<path d="M403.222 1001.96C491.611 952.669 600.507 914.897 722.071 893.016L927.061 1008.09C887.557 1076.03 819.681 1136.84 731.294 1186.13C587.009 1266.6 388.063 1316.37 168.614 1316.38C169.33 1193.59 258.938 1082.43 403.222 1001.96Z" fill="#E93565"/>
<path d="M403.223 1001.96C258.939 1082.43 169.33 1193.59 168.615 1316.38C388.064 1316.37 587.009 1266.6 731.294 1186.13C819.682 1136.84 887.557 1076.03 927.061 1008.09L722.071 893.016C600.507 914.897 491.611 952.669 403.223 1001.96V1001.96Z" fill="#F45170"/>
<path d="M193.105 1294.17C195.873 1294.17 198.641 1294.02 201.408 1293.87C397.471 1289.56 580.618 1244.85 719.938 1167.02C783.447 1131.67 835.423 1090.37 873.098 1045.52C881.094 1035.86 888.628 1026.06 895.395 1016.11L718.093 916.735C604.607 937.976 500.04 974.071 415.002 1021.45C281.525 1095.87 203.715 1191.97 193.105 1294.17V1294.17Z" fill="#E93565"/>
<path d="M201.408 1293.87C397.471 1289.56 580.617 1244.85 719.938 1167.02C783.447 1131.67 835.423 1090.37 873.098 1045.52L718.092 958.475C604.606 979.715 500.04 1015.81 415.002 1063.19C299.978 1127.36 226.32 1207.57 201.408 1293.87Z" fill="#F3F1FC"/>
<path d="M537.019 913.5L537.493 1043.44L711.852 1141.16L833.887 1073.06L833.255 943.275L805.908 927.853L805.433 841.124L728.291 884.183L659.054 845.398L641.034 855.477L574.325 817.914L574.641 892.428L537.019 913.5Z" fill="#B0B8CF"/>
<path d="M536.943 913.485L537.519 1043.41L711.775 1141.22L711.2 1011.3L536.943 913.485Z" fill="#C9CEE2"/>
<path d="M711.201 1011.3L711.777 1141.23L833.883 1073.13L833.307 943.207L711.201 1011.3Z" fill="#B0B8CF"/>
<path d="M536.945 913.486L711.201 1011.3L833.308 943.206L659.051 845.389L536.945 913.486Z" fill="#E3E7F0"/>
<path d="M574.375 817.991L574.824 919.317L710.728 995.605L710.279 894.279L574.375 817.991Z" fill="#C9CEE2"/>
<path d="M710.279 894.279L710.728 995.605L805.959 942.496L805.51 841.17L710.279 894.279Z" fill="#B0B8CF"/>
<path d="M574.375 817.991L710.279 894.279L805.51 841.17L669.607 764.882L574.375 817.991Z" fill="#E3E7F0"/>
<path d="M787.098 841.144L669.589 775.18L592.784 818.015L710.293 883.979L787.098 841.144Z" fill="#C9CEE2"/>
<path d="M549.507 978.698L588.868 1000.69V994.272L555.356 975.491L555.514 938.081L549.665 934.875L549.507 978.698Z" fill="white"/>
<path d="M549.554 978.675L549.708 934.857L555.552 938.124L555.398 975.556L549.554 978.675Z" fill="#F3F1FC"/>
<path d="M555.398 975.556L588.921 994.272V1000.66L549.555 978.676L555.398 975.556Z" fill="white"/>
<path d="M555.551 938.124L589.074 956.84L588.92 994.271L555.397 975.556L555.551 938.124Z" fill="#423D9B"/>
<path d="M604.674 1009.39L644.036 1031.38V1024.97L610.366 1006.18L610.523 968.775L604.832 965.568L604.674 1009.39Z" fill="#F3F1FC"/>
<path d="M604.599 1009.34L604.753 965.521L610.597 968.788L610.443 1006.22L604.599 1009.34Z" fill="#F3F1FC"/>
<path d="M610.443 1006.22L643.966 1024.94V1031.32L604.599 1009.34L610.443 1006.22Z" fill="white"/>
<path d="M610.597 968.788L644.12 987.503L643.966 1024.93L610.443 1006.22L610.597 968.788Z" fill="#423D9B"/>
<path d="M659.684 1039.93L699.045 1061.92V1055.66L665.533 1036.88L665.691 999.466L659.842 996.259L659.684 1039.93Z" fill="#F3F1FC"/>
<path d="M659.644 1040L659.798 996.184L665.642 999.451L665.488 1036.88L659.644 1040Z" fill="#F3F1FC"/>
<path d="M665.488 1036.88L699.011 1055.6V1061.99L659.644 1040L665.488 1036.88Z" fill="white"/>
<path d="M665.642 999.452L699.165 1018.17L699.011 1055.6L665.488 1036.88L665.642 999.452Z" fill="#423D9B"/>
<path d="M590.131 901.894L633.761 926.326V919.149L596.613 898.383L596.77 857.003L590.29 853.338L590.131 901.894Z" fill="white"/>
<path d="M590.157 901.907L590.328 853.353L596.803 856.973L596.632 898.45L590.157 901.907Z" fill="#F3F1FC"/>
<path d="M596.632 898.451L633.778 919.189V926.267L590.157 901.907L596.632 898.451Z" fill="white"/>
<path d="M596.803 856.973L633.949 877.711L633.779 919.189L596.633 898.45L596.803 856.973Z" fill="#423D9B"/>
<path d="M651.149 935.944L694.778 960.222V953.198L657.631 932.432L657.789 890.9L651.307 887.387L651.149 935.944Z" fill="white"/>
<path d="M657.799 890.95L694.945 911.688L694.775 953.166L657.629 932.427L657.799 890.95Z" fill="#423D9B"/>
<path d="M736.353 947.703V954.88L779.982 930.449L779.824 881.893L773.343 885.557L773.502 927.09L736.353 947.703Z" fill="#F3F1FC"/>
<path d="M780.015 930.485L779.844 881.93L773.369 885.551L773.54 927.028L780.015 930.485Z" fill="#F3F1FC"/>
<path d="M773.54 927.028L736.394 947.767V954.844L780.015 930.485L773.54 927.028Z" fill="white"/>
<path d="M651.154 935.883L651.325 887.328L657.8 890.949L657.629 932.426L651.154 935.883Z" fill="#F3F1FC"/>
<path d="M657.629 932.426L694.775 953.165V960.242L651.154 935.883L657.629 932.426Z" fill="white"/>
<path d="M773.54 927.028L736.394 947.767V954.844L780.015 930.485L773.54 927.028Z" fill="white"/>
<path d="M773.369 885.552L736.223 906.29L736.394 947.768L773.54 927.029L773.369 885.552Z" fill="#423D9B"/>
<path d="M549.506 1036.57L588.867 1058.56V1052.14L555.355 1033.36L555.513 995.953L549.664 992.747L549.506 1036.57Z" fill="white"/>
<path d="M549.554 1036.54L549.708 992.723L555.552 995.991L555.398 1033.42L549.554 1036.54Z" fill="#F3F1FC"/>
<path d="M555.398 1033.42L588.921 1052.14V1058.53L549.555 1036.54L555.398 1033.42Z" fill="white"/>
<path d="M555.551 995.992L589.074 1014.71L588.92 1052.14L555.397 1033.42L555.551 995.992Z" fill="#423D9B"/>
<path d="M604.674 1067.26L644.036 1089.25V1082.84L610.366 1064.05L610.523 1026.64L604.832 1023.44L604.674 1067.26Z" fill="#F3F1FC"/>
<path d="M604.6 1067.21L604.754 1023.39L610.598 1026.65L610.444 1064.09L604.6 1067.21Z" fill="#F3F1FC"/>
<path d="M610.443 1064.09L643.966 1082.8V1089.19L604.599 1067.21L610.443 1064.09Z" fill="white"/>
<path d="M610.597 1026.66L644.12 1045.37L643.966 1082.8L610.443 1064.09L610.597 1026.66Z" fill="#423D9B"/>
<path d="M659.686 1097.8L699.047 1119.79V1113.53L665.535 1094.75L665.693 1057.34L659.844 1053.98L659.686 1097.8Z" fill="#F3F1FC"/>
<path d="M659.647 1097.87L659.801 1054.05L665.645 1057.32L665.491 1094.75L659.647 1097.87Z" fill="#F3F1FC"/>
<path d="M665.49 1094.75L699.013 1113.47V1119.85L659.646 1097.87L665.49 1094.75Z" fill="white"/>
<path d="M665.643 1057.32L699.166 1076.04L699.012 1113.47L665.489 1094.75L665.643 1057.32Z" fill="#423D9B"/>
<path d="M742.518 1082.84V1092.76L802.903 1059.02L802.587 991.678L793.735 996.717L793.893 1054.13L742.518 1082.84Z" fill="#F3F1FC"/>
<path d="M802.869 1058.97L802.633 991.719L793.664 996.734L793.9 1054.19L802.869 1058.97Z" fill="#F3F1FC"/>
<path d="M793.9 1054.18L742.448 1082.91V1092.71L802.869 1058.97L793.9 1054.18Z" fill="white"/>
<path d="M793.665 996.731L742.213 1025.46L742.449 1082.91L793.901 1054.18L793.665 996.731Z" fill="#423D9B"/>
<path d="M667.885 717.13L668.328 831.091C668.339 834.733 670.831 838.371 675.809 841.165C685.772 846.758 701.928 846.758 712.014 841.133C717.075 838.311 719.61 834.602 719.6 830.902L719.156 716.941C719.167 720.642 716.632 724.35 711.571 727.172C701.485 732.797 685.329 732.797 675.366 727.205C670.388 724.41 667.895 720.773 667.885 717.13V717.13Z" fill="#F45170"/>
<path d="M667.885 717.163L667.885 737.545C667.896 741.187 670.388 744.825 675.366 747.619C685.33 753.212 701.485 753.212 711.572 747.587C716.633 744.765 719.247 741.059 719.236 737.359L719.157 716.975C719.168 720.675 716.633 724.383 711.572 727.206C701.485 732.831 685.33 732.831 675.367 727.238C670.388 724.443 667.896 720.806 667.885 717.163Z" fill="#F3F1FC"/>
<path d="M668.067 770.287L668.067 790.668C668.078 794.311 670.57 797.948 675.548 800.742C685.511 806.335 701.667 806.335 711.753 800.71C716.814 797.888 719.429 794.183 719.418 790.482L719.363 770.098C719.42 789.414 668.121 788.723 668.067 770.287V770.287Z" fill="#F3F1FC"/>
<path d="M668.284 819.704L668.328 831.124C668.339 834.766 670.831 838.403 675.809 841.198C685.772 846.791 701.928 846.791 712.014 841.166C717.075 838.343 719.61 834.635 719.6 830.935L719.555 819.516C719.566 823.216 717.031 826.924 711.97 829.747C701.884 835.372 685.728 835.372 675.765 829.779C670.786 826.984 668.294 823.347 668.284 819.704Z" fill="#F3F1FC"/>
<path d="M382.103 1066.65L382.419 1157.96L521.211 1235.83L610.366 1186.21L610.208 1094.9L471.258 1016.87L428.42 1040.85L425.416 1042.52L382.103 1066.65Z" fill="#F9A83D"/>
<path d="M382.108 1066.66L520.933 1144.59L521.224 1235.91L382.399 1157.98L382.108 1066.66Z" fill="#F9A83D"/>
<path d="M610.152 1094.83L520.933 1144.59L382.108 1066.66L471.328 1016.91L610.152 1094.83Z" fill="#FFD06C"/>
<path d="M610.153 1094.83L610.443 1186.15L521.224 1235.91L520.933 1144.59L610.153 1094.83Z" fill="#FEBC1F"/>
<path d="M414.292 1048.71L439.437 1034.69L578.261 1112.62L553.116 1126.64L414.292 1048.71Z" fill="#F3F1FC"/>
<path d="M553.116 1126.64V1156.95L565.688 1137.71L578.261 1142.74V1112.62L553.116 1126.64Z" fill="#DEDFFB"/>
<path d="M425.379 1042.53L428.35 1040.87L567.174 1118.8L564.202 1120.46L425.379 1042.53Z" fill="#E9E7FC"/>
<path d="M542.192 1216.36L542.199 1218.88L526.785 1227.47L526.778 1224.96L542.192 1216.36Z" fill="#4C5C75"/>
<path d="M530.271 1208.02L533.655 1211.11L531.335 1212.41L531.36 1220.87L529.205 1222.07L529.18 1213.61L526.915 1214.87L530.271 1208.02Z" fill="#4C5C75"/>
<path d="M538.612 1203.37L541.997 1206.46L539.732 1207.72L539.757 1216.19L537.602 1217.39L537.577 1208.92L535.257 1210.22L538.612 1203.37Z" fill="#4C5C75"/>
<path d="M553.476 1201.72C553.476 1201.41 553.369 1201.31 553.051 1201.41C552.839 1201.62 552.626 1201.92 552.626 1202.23V1204.28L546.577 1207.67C546.577 1204.08 549.018 1199.67 552.202 1197.52V1197C552.202 1196.49 552.52 1195.98 552.945 1195.67C553.369 1195.47 553.794 1195.67 553.794 1196.18V1196.7C555.173 1195.98 556.553 1196.08 557.509 1196.59C558.676 1197.21 559.419 1198.54 559.419 1200.59L553.476 1203.87V1201.72V1201.72Z" fill="#4C5C75"/>
<path d="M553.476 1201.72V1203.87L552.626 1204.28V1202.23C552.626 1201.92 552.839 1201.62 553.051 1201.41C553.369 1201.31 553.476 1201.41 553.476 1201.72V1201.72Z" fill="#4C5C75"/>
<path d="M553.582 1210.33C553.582 1211.56 552.627 1213.2 551.459 1213.82C550.292 1214.43 549.336 1213.92 549.336 1212.69C549.336 1212.38 549.549 1212.07 549.761 1211.87C549.973 1211.77 550.186 1211.87 550.186 1212.18C550.186 1212.89 550.716 1213.2 551.459 1212.79C552.096 1212.48 552.627 1211.56 552.627 1210.84V1202.23C552.627 1201.92 552.839 1201.62 553.051 1201.41C553.37 1201.31 553.476 1201.41 553.476 1201.72V1203.87L553.582 1210.33Z" fill="#4C5C75"/>
<path d="M675.484 706.948C685.513 701.355 701.727 701.323 711.747 706.948C721.71 712.541 721.599 721.612 711.572 727.205C701.484 732.83 685.329 732.829 675.366 727.237C665.345 721.612 665.398 712.573 675.484 706.948V706.948Z" fill="#111D33"/>
<path d="M675.484 706.948C665.398 712.573 665.345 721.612 675.366 727.237C685.329 732.83 701.485 732.83 711.571 727.205C721.599 721.612 721.71 712.541 711.747 706.948C701.726 701.323 685.512 701.355 675.484 706.948Z" fill="#4C5C75"/>
<path d="M715.24 717.013C715.24 724.113 704.253 727.923 696.494 728.522V705.628C704.11 706.17 715.257 709.873 715.24 717.013Z" fill="#111D33"/>
<path d="M693.633 705.515C694.6 705.515 695.552 705.561 696.494 705.628V728.522C695.479 728.6 694.453 728.654 693.41 728.654C685.18 728.654 671.778 725.032 671.797 717.128C671.816 709.151 685.32 705.515 693.633 705.515V705.515Z" fill="#1D2943"/>
</svg>
